<?xml version="1.0" encoding="UTF-8" standalone="no"?><svg xmlns="http://www.w3.org/2000/svg" xmlns:xlink="http://www.w3.org/1999/xlink" contentScriptType="application/ecmascript" contentStyleType="text/css" height="309.2px" preserveAspectRatio="none" style="width:773px;height:309px;" version="1.1" viewBox="0 0 773 309" width="773.6px" zoomAndPan="magnify"><defs><filter height="300%" id="f13vz5o7qcp11i" width="300%" x="-1" y="-1"><feGaussianBlur result="blurOut" stdDeviation="0.800000011920929"/><feColorMatrix in="blurOut" result="blurOut2" type="matrix" values="0 0 0 0 0 0 0 0 0 0 0 0 0 0 0 0 0 0 .4 0"/><feOffset dx="1.600000023841858" dy="1.600000023841858" in="blurOut2" result="blurOut3"/><feBlend in="SourceGraphic" in2="blurOut3" mode="normal"/></filter></defs><g><text fill="#000000" font-family="sans-serif" font-size="7.2" lengthAdjust="spacingAndGlyphs" text-decoration="underline" textLength="92" x="338.4" y="7.4742">BACKEND2's Class Diagram</text><line style="stroke: #000000; stroke-width: 1.0;" x1="338.4" x2="430.4" y1="8.2742" y2="8.2742"/><text fill="#000000" font-family="sans-serif" font-size="7.2" lengthAdjust="spacingAndGlyphs" textLength="0" x="385.4" y="16.5305"/><!--cluster sud_tanj.com.icare--><polygon fill="#FFFFFF" filter="url(#f13vz5o7qcp11i)" points="8.8,59.3125,64,59.3125,66.8,68.7563,755.2,68.7563,755.2,236.1125,8.8,236.1125,8.8,59.3125" style="stroke: #000000; stroke-width: 0.6000000089406967;"/><line style="stroke: #000000; stroke-width: 0.6000000089406967;" x1="8.8" x2="66.8" y1="68.7563" y2="68.7563"/><text fill="#000000" font-family="sans-serif" font-size="5.6" font-weight="bold" lengthAdjust="spacingAndGlyphs" textLength="52.8" x="10.4" y="65.9258">sud_tanj.com.icare</text><!--cluster sud_tanj.com.icare.Backend--><polygon fill="#FFFFFF" filter="url(#f13vz5o7qcp11i)" points="18.4,76.9125,99.6,76.9125,102.4,86.3563,745.6,86.3563,745.6,226.5125,18.4,226.5125,18.4,76.9125" style="stroke: #000000; stroke-width: 0.6000000089406967;"/><line style="stroke: #000000; stroke-width: 0.6000000089406967;" x1="18.4" x2="102.4" y1="86.3563" y2="86.3563"/><text fill="#000000" font-family="sans-serif" font-size="5.6" font-weight="bold" lengthAdjust="spacingAndGlyphs" textLength="78.8" x="20" y="83.5258">sud_tanj.com.icare.Backend</text><!--cluster sud_tanj.com.icare.Backend.Preferences--><polygon fill="#FFFFFF" filter="url(#f13vz5o7qcp11i)" points="600,128.7125,717.6,128.7125,720.4,138.1563,736,138.1563,736,190.7125,600,190.7125,600,128.7125" style="stroke: #000000; stroke-width: 0.6000000089406967;"/><line style="stroke: #000000; stroke-width: 0.6000000089406967;" x1="600" x2="720.4" y1="138.1563" y2="138.1563"/><text fill="#000000" font-family="sans-serif" font-size="5.6" font-weight="bold" lengthAdjust="spacingAndGlyphs" textLength="115.2" x="601.6" y="135.3258">sud_tanj.com.icare.Backend.Preferences</text><!--cluster sud_tanj.com.icare.Backend.Database--><polygon fill="#FFFFFF" filter="url(#f13vz5o7qcp11i)" points="477.6,106.5125,586.4,106.5125,589.2,115.9563,590.4,115.9563,590.4,212.9125,477.6,212.9125,477.6,106.5125" style="stroke: #000000; stroke-width: 0.6000000089406967;"/><line style="stroke: #000000; stroke-width: 0.6000000089406967;" x1="477.6" x2="589.2" y1="115.9563" y2="115.9563"/><text fill="#000000" font-family="sans-serif" font-size="5.6" font-weight="bold" lengthAdjust="spacingAndGlyphs" textLength="106.4" x="479.2" y="113.1258">sud_tanj.com.icare.Backend.Database</text><!--cluster sud_tanj.com.icare.Backend.Microcontrollers--><polygon fill="#FFFFFF" filter="url(#f13vz5o7qcp11i)" points="248.8,102.7125,378.4,102.7125,381.2,112.1563,468,112.1563,468,208.7125,248.8,208.7125,248.8,102.7125" style="stroke: #000000; stroke-width: 0.6000000089406967;"/><line style="stroke: #000000; stroke-width: 0.6000000089406967;" x1="248.8" x2="381.2" y1="112.1563" y2="112.1563"/><text fill="#000000" font-family="sans-serif" font-size="5.6" font-weight="bold" lengthAdjust="spacingAndGlyphs" textLength="127.2" x="250.4" y="109.3258">sud_tanj.com.icare.Backend.Microcontrollers</text><!--cluster sud_tanj.com.icare.Backend.Microcontrollers.CustomMicrocontroller--><polygon fill="#FFFFFF" filter="url(#f13vz5o7qcp11i)" points="258.4,120.3125,454.4,120.3125,457.2,129.7563,458.4,129.7563,458.4,199.1125,258.4,199.1125,258.4,120.3125" style="stroke: #000000; stroke-width: 0.6000000089406967;"/><line style="stroke: #000000; stroke-width: 0.6000000089406967;" x1="258.4" x2="457.2" y1="129.7563" y2="129.7563"/><text fill="#000000" font-family="sans-serif" font-size="5.6" font-weight="bold" lengthAdjust="spacingAndGlyphs" textLength="193.6" x="260" y="126.9258">sud_tanj.com.icare.Backend.Microcontrollers.CustomMicrocontroller</text><!--cluster sud_tanj.com.icare.Backend.Plugins--><polygon fill="#FFFFFF" filter="url(#f13vz5o7qcp11i)" points="28,94.5125,131.6,94.5125,134.4,103.9563,239.2,103.9563,239.2,216.9125,28,216.9125,28,94.5125" style="stroke: #000000; stroke-width: 0.6000000089406967;"/><line style="stroke: #000000; stroke-width: 0.6000000089406967;" x1="28" x2="134.4" y1="103.9563" y2="103.9563"/><text fill="#000000" font-family="sans-serif" font-size="5.6" font-weight="bold" lengthAdjust="spacingAndGlyphs" textLength="101.2" x="29.6" y="101.1258">sud_tanj.com.icare.Backend.Plugins</text><!--cluster sud_tanj.com.icare.Backend.Plugins.CustomPlugins--><polygon fill="#FFFFFF" filter="url(#f13vz5o7qcp11i)" points="37.6,112.1125,184.8,112.1125,187.6,121.5563,229.6,121.5563,229.6,207.3125,37.6,207.3125,37.6,112.1125" style="stroke: #000000; stroke-width: 0.6000000089406967;"/><line style="stroke: #000000; stroke-width: 0.6000000089406967;" x1="37.6" x2="187.6" y1="121.5563" y2="121.5563"/><text fill="#000000" font-family="sans-serif" font-size="5.6" font-weight="bold" lengthAdjust="spacingAndGlyphs" textLength="144.8" x="39.2" y="118.7258">sud_tanj.com.icare.Backend.Plugins.CustomPlugins</text><!--class HybridPreferences--><rect fill="#FEFECE" filter="url(#f13vz5o7qcp11i)" height="41.3375" id="HybridPreferences" style="stroke: #A80036; stroke-width: 0.6000000089406967;" width="123.2" x="606.4" y="143.1125"/><ellipse cx="645.9" cy="149.5125" fill="#ADD1B2" rx="4.4" ry="4.4" style="stroke: #A80036; stroke-width: 0.4000000059604645;"/><path d="M646.7,148.1125 Q646.7813,147.9125 646.875,147.8125 Q646.9688,147.7125 647.075,147.7125 Q647.2625,147.7125 647.3813,147.825 Q647.5,147.9375 647.5,148.2 L647.5,148.825 Q647.5,149.0875 647.3875,149.2 Q647.275,149.3125 647.1,149.3125 Q646.9438,149.3125 646.8438,149.2438 Q646.7438,149.175 646.7,148.9938 Q646.6813,148.8688 646.6125,148.8 Q646.4875,148.6688 646.2625,148.5906 Q646.0375,148.5125 645.8125,148.5125 Q645.5313,148.5125 645.2969,148.625 Q645.0625,148.7375 644.8813,148.9875 Q644.7,149.2375 644.7,149.5813 L644.7,149.95 Q644.7,150.3625 645.0375,150.6375 Q645.375,150.9125 645.975,150.9125 Q646.3313,150.9125 646.5813,150.8313 Q646.725,150.7875 646.8875,150.6438 Q646.9938,150.5625 647.05,150.5375 Q647.1063,150.5125 647.175,150.5125 Q647.3063,150.5125 647.4031,150.6156 Q647.5,150.7188 647.5,150.8625 Q647.5,151 647.3625,151.1625 Q647.1625,151.4 646.8438,151.5313 Q646.425,151.7125 645.9125,151.7125 Q645.3125,151.7125 644.8313,151.475 Q644.4438,151.2875 644.1719,150.8813 Q643.9,150.475 643.9,149.9938 L643.9,149.5563 Q643.9,149.0563 644.1406,148.6188 Q644.3813,148.1813 644.8031,147.9469 Q645.225,147.7125 645.7,147.7125 Q645.9875,147.7125 646.2375,147.8125 Q646.4875,147.9125 646.7,148.1125 Z "/><text fill="#000000" font-family="sans-serif" font-size="4.8" lengthAdjust="spacingAndGlyphs" textLength="40.8" x="654.1" y="151.4766">HybridPreferences</text><line style="stroke: #A80036; stroke-width: 0.6000000089406967;" x1="606.8" x2="729.2" y1="155.9125" y2="155.9125"/><polygon fill="none" points="610.8,158.8797,612.4,160.4797,610.8,162.0797,609.2,160.4797" style="stroke: #B38D22; stroke-width: 0.4000000059604645;"/><text fill="#000000" font-family="sans-serif" font-size="4.4" lengthAdjust="spacingAndGlyphs" text-decoration="underline" textLength="32.8" x="614.4" y="162.0801">context : Context</text><line style="stroke: #000000; stroke-width: 1.0;" x1="614.4" x2="647.2" y1="162.8801" y2="162.8801"/><rect fill="none" height="2.4" style="stroke: #C82930; stroke-width: 0.4000000059604645;" width="2.4" x="609.6" y="165.2141"/><text fill="#000000" font-family="sans-serif" font-size="4.4" lengthAdjust="spacingAndGlyphs" text-decoration="underline" textLength="112.8" x="614.4" y="167.6145">sharedFirebasePreferences : SharedFirebasePreferences</text><line style="stroke: #000000; stroke-width: 1.0;" x1="614.4" x2="727.2" y1="168.4145" y2="168.4145"/><line style="stroke: #A80036; stroke-width: 0.6000000089406967;" x1="606.8" x2="729.2" y1="170.1813" y2="170.1813"/><ellipse cx="610.8" cy="175.1484" fill="#84BE84" rx="1.2" ry="1.2" style="stroke: #038048; stroke-width: 0.4000000059604645;"/><text fill="#000000" font-family="sans-serif" font-size="4.4" lengthAdjust="spacingAndGlyphs" text-decoration="underline" textLength="8.4" x="614.4" y="176.3488">init()</text><line style="stroke: #000000; stroke-width: 1.0;" x1="614.4" x2="622.8" y1="177.1488" y2="177.1488"/><ellipse cx="610.8" cy="180.6828" fill="#84BE84" rx="1.2" ry="1.2" style="stroke: #038048; stroke-width: 0.4000000059604645;"/><text fill="#000000" font-family="sans-serif" font-size="4.4" lengthAdjust="spacingAndGlyphs" text-decoration="underline" textLength="42.4" x="614.4" y="181.8832">getFirebaseInstance()</text><line style="stroke: #000000; stroke-width: 1.0;" x1="614.4" x2="656.8" y1="182.6832" y2="182.6832"/><!--class HybridReference--><rect fill="#FEFECE" filter="url(#f13vz5o7qcp11i)" height="85.6125" id="HybridReference" style="stroke: #A80036; stroke-width: 0.6000000089406967;" width="95.6" x="486.2" y="120.9125"/><ellipse cx="513.9" cy="127.3125" fill="#ADD1B2" rx="4.4" ry="4.4" style="stroke: #A80036; stroke-width: 0.4000000059604645;"/><path d="M514.7,125.9125 Q514.7813,125.7125 514.875,125.6125 Q514.9688,125.5125 515.075,125.5125 Q515.2625,125.5125 515.3813,125.625 Q515.5,125.7375 515.5,126 L515.5,126.625 Q515.5,126.8875 515.3875,127 Q515.275,127.1125 515.1,127.1125 Q514.9438,127.1125 514.8438,127.0438 Q514.7438,126.975 514.7,126.7938 Q514.6813,126.6688 514.6125,126.6 Q514.4875,126.4688 514.2625,126.3906 Q514.0375,126.3125 513.8125,126.3125 Q513.5313,126.3125 513.2969,126.425 Q513.0625,126.5375 512.8813,126.7875 Q512.7,127.0375 512.7,127.3813 L512.7,127.75 Q512.7,128.1625 513.0375,128.4375 Q513.375,128.7125 513.975,128.7125 Q514.3313,128.7125 514.5813,128.6313 Q514.725,128.5875 514.8875,128.4438 Q514.9938,128.3625 515.05,128.3375 Q515.1063,128.3125 515.175,128.3125 Q515.3063,128.3125 515.4031,128.4156 Q515.5,128.5188 515.5,128.6625 Q515.5,128.8 515.3625,128.9625 Q515.1625,129.2 514.8438,129.3313 Q514.425,129.5125 513.9125,129.5125 Q513.3125,129.5125 512.8313,129.275 Q512.4438,129.0875 512.1719,128.6813 Q511.9,128.275 511.9,127.7938 L511.9,127.3563 Q511.9,126.8563 512.1406,126.4188 Q512.3813,125.9813 512.8031,125.7469 Q513.225,125.5125 513.7,125.5125 Q513.9875,125.5125 514.2375,125.6125 Q514.4875,125.7125 514.7,125.9125 Z "/><text fill="#000000" font-family="sans-serif" font-size="4.8" lengthAdjust="spacingAndGlyphs" textLength="36.8" x="522.1" y="129.2766">HybridReference</text><line style="stroke: #A80036; stroke-width: 0.6000000089406967;" x1="486.6" x2="581.4" y1="133.7125" y2="133.7125"/><polygon fill="none" points="490.6,136.6797,492.2,138.2797,490.6,139.8797,489,138.2797" style="stroke: #B38D22; stroke-width: 0.4000000059604645;"/><text fill="#000000" font-family="sans-serif" font-size="4.4" lengthAdjust="spacingAndGlyphs" text-decoration="underline" textLength="85.2" x="494.2" y="139.8801">PAPER_OFFLINE_KEY_COLLECTION : String</text><line style="stroke: #000000; stroke-width: 1.0;" x1="494.2" x2="579.4" y1="140.6801" y2="140.6801"/><rect fill="none" height="2.4" style="stroke: #C82930; stroke-width: 0.4000000059604645;" width="2.4" x="489.4" y="143.0141"/><text fill="#000000" font-family="sans-serif" font-size="4.4" lengthAdjust="spacingAndGlyphs" textLength="80.8" x="494.2" y="145.4145">databaseReference : DatabaseReference</text><rect fill="none" height="2.4" style="stroke: #C82930; stroke-width: 0.4000000059604645;" width="2.4" x="489.4" y="148.5484"/><text fill="#000000" font-family="sans-serif" font-size="4.4" lengthAdjust="spacingAndGlyphs" textLength="76" x="494.2" y="150.9488">completionListener : CompletionListener</text><rect fill="none" height="2.4" style="stroke: #C82930; stroke-width: 0.4000000059604645;" width="2.4" x="489.4" y="154.0828"/><text fill="#000000" font-family="sans-serif" font-size="4.4" lengthAdjust="spacingAndGlyphs" text-decoration="underline" textLength="51.2" x="494.2" y="156.4832">isPersistenceSet : boolean</text><line style="stroke: #000000; stroke-width: 1.0;" x1="494.2" x2="545.4" y1="157.2832" y2="157.2832"/><line style="stroke: #A80036; stroke-width: 0.6000000089406967;" x1="486.6" x2="581.4" y1="159.05" y2="159.05"/><ellipse cx="490.6" cy="164.0172" fill="#84BE84" rx="1.2" ry="1.2" style="stroke: #038048; stroke-width: 0.4000000059604645;"/><text fill="#000000" font-family="sans-serif" font-size="4.4" lengthAdjust="spacingAndGlyphs" textLength="36" x="494.2" y="165.2176">HybridReference()</text><ellipse cx="490.6" cy="169.5516" fill="#84BE84" rx="1.2" ry="1.2" style="stroke: #038048; stroke-width: 0.4000000059604645;"/><text fill="#000000" font-family="sans-serif" font-size="4.4" lengthAdjust="spacingAndGlyphs" textLength="20.4" x="494.2" y="170.752">setValue()</text><ellipse cx="490.6" cy="175.0859" fill="#84BE84" rx="1.2" ry="1.2" style="stroke: #038048; stroke-width: 0.4000000059604645;"/><text fill="#000000" font-family="sans-serif" font-size="4.4" lengthAdjust="spacingAndGlyphs" text-decoration="underline" textLength="8.4" x="494.2" y="176.2863">init()</text><line style="stroke: #000000; stroke-width: 1.0;" x1="494.2" x2="502.6" y1="177.0863" y2="177.0863"/><ellipse cx="490.6" cy="180.6203" fill="#84BE84" rx="1.2" ry="1.2" style="stroke: #038048; stroke-width: 0.4000000059604645;"/><text fill="#000000" font-family="sans-serif" font-size="4.4" lengthAdjust="spacingAndGlyphs" textLength="20.4" x="494.2" y="181.8207">setValue()</text><rect fill="#F24D5C" height="2.4" style="stroke: #C82930; stroke-width: 0.4000000059604645;" width="2.4" x="489.4" y="184.9547"/><text fill="#000000" font-family="sans-serif" font-size="4.4" lengthAdjust="spacingAndGlyphs" textLength="36.8" x="494.2" y="187.3551">cacheToFirebase()</text><rect fill="#F24D5C" height="2.4" style="stroke: #C82930; stroke-width: 0.4000000059604645;" width="2.4" x="489.4" y="190.4891"/><text fill="#000000" font-family="sans-serif" font-size="4.4" lengthAdjust="spacingAndGlyphs" textLength="31.2" x="494.2" y="192.8895">cacheToPaper()</text><ellipse cx="490.6" cy="197.2234" fill="#84BE84" rx="1.2" ry="1.2" style="stroke: #038048; stroke-width: 0.4000000059604645;"/><text fill="#000000" font-family="sans-serif" font-size="4.4" lengthAdjust="spacingAndGlyphs" textLength="25.6" x="494.2" y="198.4238">onComplete()</text><ellipse cx="490.6" cy="202.7578" fill="#84BE84" rx="1.2" ry="1.2" style="stroke: #038048; stroke-width: 0.4000000059604645;"/><text fill="#000000" font-family="sans-serif" font-size="4.4" lengthAdjust="spacingAndGlyphs" textLength="48" x="494.2" y="203.9582">getDatabaseReference()</text><!--class LolinESP8266--><rect fill="#FEFECE" filter="url(#f13vz5o7qcp11i)" height="46.8719" id="LolinESP8266" style="stroke: #A80036; stroke-width: 0.6000000089406967;" width="64.4" x="373.8" y="140.3125"/><ellipse cx="388.8" cy="146.7125" fill="#ADD1B2" rx="4.4" ry="4.4" style="stroke: #A80036; stroke-width: 0.4000000059604645;"/><path d="M389.6,145.3125 Q389.6813,145.1125 389.775,145.0125 Q389.8688,144.9125 389.975,144.9125 Q390.1625,144.9125 390.2813,145.025 Q390.4,145.1375 390.4,145.4 L390.4,146.025 Q390.4,146.2875 390.2875,146.4 Q390.175,146.5125 390,146.5125 Q389.8438,146.5125 389.7438,146.4438 Q389.6438,146.375 389.6,146.1938 Q389.5813,146.0688 389.5125,146 Q389.3875,145.8688 389.1625,145.7906 Q388.9375,145.7125 388.7125,145.7125 Q388.4313,145.7125 388.1969,145.825 Q387.9625,145.9375 387.7813,146.1875 Q387.6,146.4375 387.6,146.7813 L387.6,147.15 Q387.6,147.5625 387.9375,147.8375 Q388.275,148.1125 388.875,148.1125 Q389.2313,148.1125 389.4813,148.0313 Q389.625,147.9875 389.7875,147.8438 Q389.8938,147.7625 389.95,147.7375 Q390.0063,147.7125 390.075,147.7125 Q390.2063,147.7125 390.3031,147.8156 Q390.4,147.9188 390.4,148.0625 Q390.4,148.2 390.2625,148.3625 Q390.0625,148.6 389.7438,148.7313 Q389.325,148.9125 388.8125,148.9125 Q388.2125,148.9125 387.7313,148.675 Q387.3438,148.4875 387.0719,148.0813 Q386.8,147.675 386.8,147.1938 L386.8,146.7563 Q386.8,146.2563 387.0406,145.8188 Q387.2813,145.3813 387.7031,145.1469 Q388.125,144.9125 388.6,144.9125 Q388.8875,144.9125 389.1375,145.0125 Q389.3875,145.1125 389.6,145.3125 Z "/><text fill="#000000" font-family="sans-serif" font-size="4.8" lengthAdjust="spacingAndGlyphs" textLength="31.6" x="396.4" y="148.6766">LolinESP8266</text><line style="stroke: #A80036; stroke-width: 0.6000000089406967;" x1="374.2" x2="437.8" y1="153.1125" y2="153.1125"/><ellipse cx="378.2" cy="158.0797" fill="none" rx="1.2" ry="1.2" style="stroke: #038048; stroke-width: 0.4000000059604645;"/><text fill="#000000" font-family="sans-serif" font-size="4.4" lengthAdjust="spacingAndGlyphs" text-decoration="underline" textLength="36.8" x="381.8" y="159.2801">LOLIN_URL : String</text><line style="stroke: #000000; stroke-width: 1.0;" x1="381.8" x2="418.6" y1="160.0801" y2="160.0801"/><rect fill="none" height="2.4" style="stroke: #C82930; stroke-width: 0.4000000059604645;" width="2.4" x="377" y="162.4141"/><text fill="#000000" font-family="sans-serif" font-size="4.4" lengthAdjust="spacingAndGlyphs" text-decoration="underline" textLength="54" x="381.8" y="164.8145">lolinESP8266 : LolinESP8266</text><line style="stroke: #000000; stroke-width: 1.0;" x1="381.8" x2="435.8" y1="165.6145" y2="165.6145"/><line style="stroke: #A80036; stroke-width: 0.6000000089406967;" x1="374.2" x2="437.8" y1="167.3813" y2="167.3813"/><ellipse cx="378.2" cy="172.3484" fill="#84BE84" rx="1.2" ry="1.2" style="stroke: #038048; stroke-width: 0.4000000059604645;"/><text fill="#000000" font-family="sans-serif" font-size="4.4" lengthAdjust="spacingAndGlyphs" text-decoration="underline" textLength="25.6" x="381.8" y="173.5488">getInstance()</text><line style="stroke: #000000; stroke-width: 1.0;" x1="381.8" x2="407.4" y1="174.3488" y2="174.3488"/><ellipse cx="378.2" cy="177.8828" fill="#84BE84" rx="1.2" ry="1.2" style="stroke: #038048; stroke-width: 0.4000000059604645;"/><text fill="#000000" font-family="sans-serif" font-size="4.4" lengthAdjust="spacingAndGlyphs" textLength="29.2" x="381.8" y="179.0832">LolinESP8266()</text><ellipse cx="378.2" cy="183.4172" fill="#84BE84" rx="1.2" ry="1.2" style="stroke: #038048; stroke-width: 0.4000000059604645;"/><text fill="#000000" font-family="sans-serif" font-size="4.4" lengthAdjust="spacingAndGlyphs" textLength="9.6" x="381.8" y="184.6176">run()</text><!--class LolinESP8266Multi--><rect fill="#FEFECE" filter="url(#f13vz5o7qcp11i)" height="57.9406" id="LolinESP8266Multi" style="stroke: #A80036; stroke-width: 0.6000000089406967;" width="81.2" x="278.6" y="134.7125"/><ellipse cx="296.7" cy="141.1125" fill="#ADD1B2" rx="4.4" ry="4.4" style="stroke: #A80036; stroke-width: 0.4000000059604645;"/><path d="M297.5,139.7125 Q297.5813,139.5125 297.675,139.4125 Q297.7688,139.3125 297.875,139.3125 Q298.0625,139.3125 298.1813,139.425 Q298.3,139.5375 298.3,139.8 L298.3,140.425 Q298.3,140.6875 298.1875,140.8 Q298.075,140.9125 297.9,140.9125 Q297.7438,140.9125 297.6438,140.8438 Q297.5438,140.775 297.5,140.5938 Q297.4813,140.4688 297.4125,140.4 Q297.2875,140.2688 297.0625,140.1906 Q296.8375,140.1125 296.6125,140.1125 Q296.3313,140.1125 296.0969,140.225 Q295.8625,140.3375 295.6813,140.5875 Q295.5,140.8375 295.5,141.1813 L295.5,141.55 Q295.5,141.9625 295.8375,142.2375 Q296.175,142.5125 296.775,142.5125 Q297.1313,142.5125 297.3813,142.4313 Q297.525,142.3875 297.6875,142.2438 Q297.7938,142.1625 297.85,142.1375 Q297.9063,142.1125 297.975,142.1125 Q298.1063,142.1125 298.2031,142.2156 Q298.3,142.3188 298.3,142.4625 Q298.3,142.6 298.1625,142.7625 Q297.9625,143 297.6438,143.1313 Q297.225,143.3125 296.7125,143.3125 Q296.1125,143.3125 295.6313,143.075 Q295.2438,142.8875 294.9719,142.4813 Q294.7,142.075 294.7,141.5938 L294.7,141.1563 Q294.7,140.6563 294.9406,140.2188 Q295.1813,139.7813 295.6031,139.5469 Q296.025,139.3125 296.5,139.3125 Q296.7875,139.3125 297.0375,139.4125 Q297.2875,139.5125 297.5,139.7125 Z "/><text fill="#000000" font-family="sans-serif" font-size="4.8" lengthAdjust="spacingAndGlyphs" textLength="41.6" x="304.9" y="143.0766">LolinESP8266Multi</text><line style="stroke: #A80036; stroke-width: 0.6000000089406967;" x1="279" x2="359.4" y1="147.5125" y2="147.5125"/><ellipse cx="283" cy="152.4797" fill="none" rx="1.2" ry="1.2" style="stroke: #038048; stroke-width: 0.4000000059604645;"/><text fill="#000000" font-family="sans-serif" font-size="4.4" lengthAdjust="spacingAndGlyphs" text-decoration="underline" textLength="36.8" x="286.6" y="153.6801">LOLIN_URL : String</text><line style="stroke: #000000; stroke-width: 1.0;" x1="286.6" x2="323.4" y1="154.4801" y2="154.4801"/><ellipse cx="283" cy="158.0141" fill="none" rx="1.2" ry="1.2" style="stroke: #038048; stroke-width: 0.4000000059604645;"/><text fill="#000000" font-family="sans-serif" font-size="4.4" lengthAdjust="spacingAndGlyphs" text-decoration="underline" textLength="29.6" x="286.6" y="159.2145">NEW_IP : String</text><line style="stroke: #000000; stroke-width: 1.0;" x1="286.6" x2="316.2" y1="160.0145" y2="160.0145"/><rect fill="none" height="2.4" style="stroke: #C82930; stroke-width: 0.4000000059604645;" width="2.4" x="281.8" y="162.3484"/><text fill="#000000" font-family="sans-serif" font-size="4.4" lengthAdjust="spacingAndGlyphs" text-decoration="underline" textLength="70.8" x="286.6" y="164.7488">lolinESP8266Multi : LolinESP8266Multi</text><line style="stroke: #000000; stroke-width: 1.0;" x1="286.6" x2="357.4" y1="165.5488" y2="165.5488"/><rect fill="none" height="2.4" style="stroke: #C82930; stroke-width: 0.4000000059604645;" width="2.4" x="281.8" y="167.8828"/><text fill="#000000" font-family="sans-serif" font-size="4.4" lengthAdjust="spacingAndGlyphs" textLength="46.4" x="286.6" y="170.2832">ipAddress : List&lt;String&gt;</text><line style="stroke: #A80036; stroke-width: 0.6000000089406967;" x1="279" x2="359.4" y1="172.85" y2="172.85"/><ellipse cx="283" cy="177.8172" fill="#84BE84" rx="1.2" ry="1.2" style="stroke: #038048; stroke-width: 0.4000000059604645;"/><text fill="#000000" font-family="sans-serif" font-size="4.4" lengthAdjust="spacingAndGlyphs" text-decoration="underline" textLength="25.6" x="286.6" y="179.0176">getInstance()</text><line style="stroke: #000000; stroke-width: 1.0;" x1="286.6" x2="312.2" y1="179.8176" y2="179.8176"/><ellipse cx="283" cy="183.3516" fill="#84BE84" rx="1.2" ry="1.2" style="stroke: #038048; stroke-width: 0.4000000059604645;"/><text fill="#000000" font-family="sans-serif" font-size="4.4" lengthAdjust="spacingAndGlyphs" textLength="37.6" x="286.6" y="184.552">LolinESP8266Multi()</text><ellipse cx="283" cy="188.8859" fill="#84BE84" rx="1.2" ry="1.2" style="stroke: #038048; stroke-width: 0.4000000059604645;"/><text fill="#000000" font-family="sans-serif" font-size="4.4" lengthAdjust="spacingAndGlyphs" textLength="9.6" x="286.6" y="190.0863">run()</text><!--class LolinExample--><rect fill="#FEFECE" filter="url(#f13vz5o7qcp11i)" height="57.9406" id="LolinExample" style="stroke: #A80036; stroke-width: 0.6000000089406967;" width="69.2" x="44.2" y="134.7125"/><ellipse cx="62.1" cy="141.1125" fill="#ADD1B2" rx="4.4" ry="4.4" style="stroke: #A80036; stroke-width: 0.4000000059604645;"/><path d="M62.9,139.7125 Q62.9813,139.5125 63.075,139.4125 Q63.1688,139.3125 63.275,139.3125 Q63.4625,139.3125 63.5813,139.425 Q63.7,139.5375 63.7,139.8 L63.7,140.425 Q63.7,140.6875 63.5875,140.8 Q63.475,140.9125 63.3,140.9125 Q63.1438,140.9125 63.0438,140.8438 Q62.9438,140.775 62.9,140.5938 Q62.8813,140.4688 62.8125,140.4 Q62.6875,140.2688 62.4625,140.1906 Q62.2375,140.1125 62.0125,140.1125 Q61.7313,140.1125 61.4969,140.225 Q61.2625,140.3375 61.0813,140.5875 Q60.9,140.8375 60.9,141.1813 L60.9,141.55 Q60.9,141.9625 61.2375,142.2375 Q61.575,142.5125 62.175,142.5125 Q62.5313,142.5125 62.7813,142.4313 Q62.925,142.3875 63.0875,142.2438 Q63.1938,142.1625 63.25,142.1375 Q63.3063,142.1125 63.375,142.1125 Q63.5063,142.1125 63.6031,142.2156 Q63.7,142.3188 63.7,142.4625 Q63.7,142.6 63.5625,142.7625 Q63.3625,143 63.0438,143.1313 Q62.625,143.3125 62.1125,143.3125 Q61.5125,143.3125 61.0313,143.075 Q60.6438,142.8875 60.3719,142.4813 Q60.1,142.075 60.1,141.5938 L60.1,141.1563 Q60.1,140.6563 60.3406,140.2188 Q60.5813,139.7813 61.0031,139.5469 Q61.425,139.3125 61.9,139.3125 Q62.1875,139.3125 62.4375,139.4125 Q62.6875,139.5125 62.9,139.7125 Z "/><text fill="#000000" font-family="sans-serif" font-size="4.8" lengthAdjust="spacingAndGlyphs" textLength="30" x="70.3" y="143.0766">LolinExample</text><line style="stroke: #A80036; stroke-width: 0.6000000089406967;" x1="44.6" x2="113" y1="147.5125" y2="147.5125"/><ellipse cx="48.6" cy="152.4797" fill="none" rx="1.2" ry="1.2" style="stroke: #038048; stroke-width: 0.4000000059604645;"/><text fill="#000000" font-family="sans-serif" font-size="4.4" lengthAdjust="spacingAndGlyphs" text-decoration="underline" textLength="45.2" x="52.2" y="153.6801">IDENTIFICATION : String</text><line style="stroke: #000000; stroke-width: 1.0;" x1="52.2" x2="97.4" y1="154.4801" y2="154.4801"/><rect fill="none" height="2.4" style="stroke: #C82930; stroke-width: 0.4000000059604645;" width="2.4" x="47.4" y="156.8141"/><text fill="#000000" font-family="sans-serif" font-size="4.4" lengthAdjust="spacingAndGlyphs" textLength="25.2" x="52.2" y="159.2145">value : String</text><rect fill="none" height="2.4" style="stroke: #C82930; stroke-width: 0.4000000059604645;" width="2.4" x="47.4" y="162.3484"/><text fill="#000000" font-family="sans-serif" font-size="4.4" lengthAdjust="spacingAndGlyphs" text-decoration="underline" textLength="58.8" x="52.2" y="164.7488">arduinoExample : LolinExample</text><line style="stroke: #000000; stroke-width: 1.0;" x1="52.2" x2="111" y1="165.5488" y2="165.5488"/><line style="stroke: #A80036; stroke-width: 0.6000000089406967;" x1="44.6" x2="113" y1="167.3156" y2="167.3156"/><ellipse cx="48.6" cy="172.2828" fill="#84BE84" rx="1.2" ry="1.2" style="stroke: #038048; stroke-width: 0.4000000059604645;"/><text fill="#000000" font-family="sans-serif" font-size="4.4" lengthAdjust="spacingAndGlyphs" textLength="23.6" x="52.2" y="173.4832">onDispose()</text><ellipse cx="48.6" cy="177.8172" fill="#84BE84" rx="1.2" ry="1.2" style="stroke: #038048; stroke-width: 0.4000000059604645;"/><text fill="#000000" font-family="sans-serif" font-size="4.4" lengthAdjust="spacingAndGlyphs" text-decoration="underline" textLength="25.6" x="52.2" y="179.0176">getInstance()</text><line style="stroke: #000000; stroke-width: 1.0;" x1="52.2" x2="77.8" y1="179.8176" y2="179.8176"/><ellipse cx="48.6" cy="183.3516" fill="#84BE84" rx="1.2" ry="1.2" style="stroke: #038048; stroke-width: 0.4000000059604645;"/><text fill="#000000" font-family="sans-serif" font-size="4.4" lengthAdjust="spacingAndGlyphs" textLength="34.8" x="52.2" y="184.552">onDataReceived()</text><ellipse cx="48.6" cy="188.8859" fill="#84BE84" rx="1.2" ry="1.2" style="stroke: #038048; stroke-width: 0.4000000059604645;"/><text fill="#000000" font-family="sans-serif" font-size="4.4" lengthAdjust="spacingAndGlyphs" textLength="9.6" x="52.2" y="190.0863">run()</text><!--class LolinMultiExample--><rect fill="#FEFECE" filter="url(#f13vz5o7qcp11i)" height="74.5438" id="LolinMultiExample" style="stroke: #A80036; stroke-width: 0.6000000089406967;" width="95.6" x="127.4" y="126.5125"/><ellipse cx="153.5" cy="132.9125" fill="#ADD1B2" rx="4.4" ry="4.4" style="stroke: #A80036; stroke-width: 0.4000000059604645;"/><path d="M154.3,131.5125 Q154.3813,131.3125 154.475,131.2125 Q154.5688,131.1125 154.675,131.1125 Q154.8625,131.1125 154.9813,131.225 Q155.1,131.3375 155.1,131.6 L155.1,132.225 Q155.1,132.4875 154.9875,132.6 Q154.875,132.7125 154.7,132.7125 Q154.5438,132.7125 154.4438,132.6438 Q154.3438,132.575 154.3,132.3938 Q154.2813,132.2688 154.2125,132.2 Q154.0875,132.0688 153.8625,131.9906 Q153.6375,131.9125 153.4125,131.9125 Q153.1313,131.9125 152.8969,132.025 Q152.6625,132.1375 152.4813,132.3875 Q152.3,132.6375 152.3,132.9813 L152.3,133.35 Q152.3,133.7625 152.6375,134.0375 Q152.975,134.3125 153.575,134.3125 Q153.9313,134.3125 154.1813,134.2313 Q154.325,134.1875 154.4875,134.0438 Q154.5938,133.9625 154.65,133.9375 Q154.7063,133.9125 154.775,133.9125 Q154.9063,133.9125 155.0031,134.0156 Q155.1,134.1188 155.1,134.2625 Q155.1,134.4 154.9625,134.5625 Q154.7625,134.8 154.4438,134.9313 Q154.025,135.1125 153.5125,135.1125 Q152.9125,135.1125 152.4313,134.875 Q152.0438,134.6875 151.7719,134.2813 Q151.5,133.875 151.5,133.3938 L151.5,132.9563 Q151.5,132.4563 151.7406,132.0188 Q151.9813,131.5813 152.4031,131.3469 Q152.825,131.1125 153.3,131.1125 Q153.5875,131.1125 153.8375,131.2125 Q154.0875,131.3125 154.3,131.5125 Z "/><text fill="#000000" font-family="sans-serif" font-size="4.8" lengthAdjust="spacingAndGlyphs" textLength="40" x="161.7" y="134.8766">LolinMultiExample</text><line style="stroke: #A80036; stroke-width: 0.6000000089406967;" x1="127.8" x2="222.6" y1="139.3125" y2="139.3125"/><ellipse cx="131.8" cy="144.2797" fill="none" rx="1.2" ry="1.2" style="stroke: #038048; stroke-width: 0.4000000059604645;"/><text fill="#000000" font-family="sans-serif" font-size="4.4" lengthAdjust="spacingAndGlyphs" text-decoration="underline" textLength="79.6" x="135.4" y="145.4801">FIRST_MICROCONTROLLER_TAG : String</text><line style="stroke: #000000; stroke-width: 1.0;" x1="135.4" x2="215" y1="146.2801" y2="146.2801"/><ellipse cx="131.8" cy="149.8141" fill="none" rx="1.2" ry="1.2" style="stroke: #038048; stroke-width: 0.4000000059604645;"/><text fill="#000000" font-family="sans-serif" font-size="4.4" lengthAdjust="spacingAndGlyphs" text-decoration="underline" textLength="85.2" x="135.4" y="151.0145">SECOND_MICROCONTROLLER_TAG : String</text><line style="stroke: #000000; stroke-width: 1.0;" x1="135.4" x2="220.6" y1="151.8145" y2="151.8145"/><ellipse cx="131.8" cy="155.3484" fill="none" rx="1.2" ry="1.2" style="stroke: #038048; stroke-width: 0.4000000059604645;"/><text fill="#000000" font-family="sans-serif" font-size="4.4" lengthAdjust="spacingAndGlyphs" text-decoration="underline" textLength="45.2" x="135.4" y="156.5488">IDENTIFICATION : String</text><line style="stroke: #000000; stroke-width: 1.0;" x1="135.4" x2="180.6" y1="157.3488" y2="157.3488"/><rect fill="none" height="2.4" style="stroke: #C82930; stroke-width: 0.4000000059604645;" width="2.4" x="130.6" y="159.6828"/><text fill="#000000" font-family="sans-serif" font-size="4.4" lengthAdjust="spacingAndGlyphs" text-decoration="underline" textLength="68.4" x="135.4" y="162.0832">lolinMultiExample : LolinMultiExample</text><line style="stroke: #000000; stroke-width: 1.0;" x1="135.4" x2="203.8" y1="162.8832" y2="162.8832"/><rect fill="none" height="2.4" style="stroke: #C82930; stroke-width: 0.4000000059604645;" width="2.4" x="130.6" y="165.2172"/><text fill="#000000" font-family="sans-serif" font-size="4.4" lengthAdjust="spacingAndGlyphs" textLength="62" x="135.4" y="167.6176">firstMicrocontrollerValue : String</text><rect fill="none" height="2.4" style="stroke: #C82930; stroke-width: 0.4000000059604645;" width="2.4" x="130.6" y="170.7516"/><text fill="#000000" font-family="sans-serif" font-size="4.4" lengthAdjust="spacingAndGlyphs" textLength="68.8" x="135.4" y="173.152">secondMicrocontrollerValue : String</text><line style="stroke: #A80036; stroke-width: 0.6000000089406967;" x1="127.8" x2="222.6" y1="175.7188" y2="175.7188"/><ellipse cx="131.8" cy="180.6859" fill="#84BE84" rx="1.2" ry="1.2" style="stroke: #038048; stroke-width: 0.4000000059604645;"/><text fill="#000000" font-family="sans-serif" font-size="4.4" lengthAdjust="spacingAndGlyphs" text-decoration="underline" textLength="25.6" x="135.4" y="181.8863">getInstance()</text><line style="stroke: #000000; stroke-width: 1.0;" x1="135.4" x2="161" y1="182.6863" y2="182.6863"/><ellipse cx="131.8" cy="186.2203" fill="#84BE84" rx="1.2" ry="1.2" style="stroke: #038048; stroke-width: 0.4000000059604645;"/><text fill="#000000" font-family="sans-serif" font-size="4.4" lengthAdjust="spacingAndGlyphs" textLength="9.6" x="135.4" y="187.4207">run()</text><ellipse cx="131.8" cy="191.7547" fill="#84BE84" rx="1.2" ry="1.2" style="stroke: #038048; stroke-width: 0.4000000059604645;"/><text fill="#000000" font-family="sans-serif" font-size="4.4" lengthAdjust="spacingAndGlyphs" textLength="23.6" x="135.4" y="192.9551">onDispose()</text><ellipse cx="131.8" cy="197.2891" fill="#84BE84" rx="1.2" ry="1.2" style="stroke: #038048; stroke-width: 0.4000000059604645;"/><text fill="#000000" font-family="sans-serif" font-size="4.4" lengthAdjust="spacingAndGlyphs" textLength="34.8" x="135.4" y="198.4895">onDataReceived()</text><!--class CompletionListener--><rect fill="#FEFECE" filter="url(#f13vz5o7qcp11i)" height="19.2" id="CompletionListener" style="stroke: #A80036; stroke-width: 0.6000000089406967;" width="56.4" x="505.8" y="21.3125"/><ellipse cx="511.8" cy="27.7125" fill="#ADD1B2" rx="4.4" ry="4.4" style="stroke: #A80036; stroke-width: 0.4000000059604645;"/><path d="M512.6,26.3125 Q512.6813,26.1125 512.775,26.0125 Q512.8688,25.9125 512.975,25.9125 Q513.1625,25.9125 513.2813,26.025 Q513.4,26.1375 513.4,26.4 L513.4,27.025 Q513.4,27.2875 513.2875,27.4 Q513.175,27.5125 513,27.5125 Q512.8438,27.5125 512.7438,27.4438 Q512.6438,27.375 512.6,27.1938 Q512.5813,27.0688 512.5125,27 Q512.3875,26.8688 512.1625,26.7906 Q511.9375,26.7125 511.7125,26.7125 Q511.4313,26.7125 511.1969,26.825 Q510.9625,26.9375 510.7813,27.1875 Q510.6,27.4375 510.6,27.7813 L510.6,28.15 Q510.6,28.5625 510.9375,28.8375 Q511.275,29.1125 511.875,29.1125 Q512.2313,29.1125 512.4813,29.0313 Q512.625,28.9875 512.7875,28.8438 Q512.8938,28.7625 512.95,28.7375 Q513.0063,28.7125 513.075,28.7125 Q513.2063,28.7125 513.3031,28.8156 Q513.4,28.9188 513.4,29.0625 Q513.4,29.2 513.2625,29.3625 Q513.0625,29.6 512.7438,29.7313 Q512.325,29.9125 511.8125,29.9125 Q511.2125,29.9125 510.7313,29.675 Q510.3438,29.4875 510.0719,29.0813 Q509.8,28.675 509.8,28.1938 L509.8,27.7563 Q509.8,27.2563 510.0406,26.8188 Q510.2813,26.3813 510.7031,26.1469 Q511.125,25.9125 511.6,25.9125 Q511.8875,25.9125 512.1375,26.0125 Q512.3875,26.1125 512.6,26.3125 Z "/><text fill="#000000" font-family="sans-serif" font-size="4.8" lengthAdjust="spacingAndGlyphs" textLength="43.6" x="517.4" y="29.6766">CompletionListener</text><line style="stroke: #A80036; stroke-width: 0.6000000089406967;" x1="506.2" x2="561.8" y1="34.1125" y2="34.1125"/><line style="stroke: #A80036; stroke-width: 0.6000000089406967;" x1="506.2" x2="561.8" y1="37.3125" y2="37.3125"/><!--class MicrocontrollerListener--><rect fill="#FEFECE" filter="url(#f13vz5o7qcp11i)" height="19.2" id="MicrocontrollerListener" style="stroke: #A80036; stroke-width: 0.6000000089406967;" width="62.8" x="120.2" y="21.3125"/><ellipse cx="126.2" cy="27.7125" fill="#ADD1B2" rx="4.4" ry="4.4" style="stroke: #A80036; stroke-width: 0.4000000059604645;"/><path d="M127,26.3125 Q127.0813,26.1125 127.175,26.0125 Q127.2688,25.9125 127.375,25.9125 Q127.5625,25.9125 127.6813,26.025 Q127.8,26.1375 127.8,26.4 L127.8,27.025 Q127.8,27.2875 127.6875,27.4 Q127.575,27.5125 127.4,27.5125 Q127.2438,27.5125 127.1438,27.4438 Q127.0438,27.375 127,27.1938 Q126.9813,27.0688 126.9125,27 Q126.7875,26.8688 126.5625,26.7906 Q126.3375,26.7125 126.1125,26.7125 Q125.8313,26.7125 125.5969,26.825 Q125.3625,26.9375 125.1813,27.1875 Q125,27.4375 125,27.7813 L125,28.15 Q125,28.5625 125.3375,28.8375 Q125.675,29.1125 126.275,29.1125 Q126.6313,29.1125 126.8813,29.0313 Q127.025,28.9875 127.1875,28.8438 Q127.2938,28.7625 127.35,28.7375 Q127.4063,28.7125 127.475,28.7125 Q127.6063,28.7125 127.7031,28.8156 Q127.8,28.9188 127.8,29.0625 Q127.8,29.2 127.6625,29.3625 Q127.4625,29.6 127.1438,29.7313 Q126.725,29.9125 126.2125,29.9125 Q125.6125,29.9125 125.1313,29.675 Q124.7438,29.4875 124.4719,29.0813 Q124.2,28.675 124.2,28.1938 L124.2,27.7563 Q124.2,27.2563 124.4406,26.8188 Q124.6813,26.3813 125.1031,26.1469 Q125.525,25.9125 126,25.9125 Q126.2875,25.9125 126.5375,26.0125 Q126.7875,26.1125 127,26.3125 Z "/><text fill="#000000" font-family="sans-serif" font-size="4.8" lengthAdjust="spacingAndGlyphs" textLength="50" x="131.8" y="29.6766">MicrocontrollerListener</text><line style="stroke: #A80036; stroke-width: 0.6000000089406967;" x1="120.6" x2="182.6" y1="34.1125" y2="34.1125"/><line style="stroke: #A80036; stroke-width: 0.6000000089406967;" x1="120.6" x2="182.6" y1="37.3125" y2="37.3125"/><!--class BasePlugin--><rect fill="#FEFECE" filter="url(#f13vz5o7qcp11i)" height="19.2" id="BasePlugin" style="stroke: #A80036; stroke-width: 0.6000000089406967;" width="38.4" x="65.6" y="21.3125"/><ellipse cx="71.6" cy="27.7125" fill="#ADD1B2" rx="4.4" ry="4.4" style="stroke: #A80036; stroke-width: 0.4000000059604645;"/><path d="M72.4,26.3125 Q72.4813,26.1125 72.575,26.0125 Q72.6688,25.9125 72.775,25.9125 Q72.9625,25.9125 73.0813,26.025 Q73.2,26.1375 73.2,26.4 L73.2,27.025 Q73.2,27.2875 73.0875,27.4 Q72.975,27.5125 72.8,27.5125 Q72.6438,27.5125 72.5438,27.4438 Q72.4438,27.375 72.4,27.1938 Q72.3813,27.0688 72.3125,27 Q72.1875,26.8688 71.9625,26.7906 Q71.7375,26.7125 71.5125,26.7125 Q71.2313,26.7125 70.9969,26.825 Q70.7625,26.9375 70.5813,27.1875 Q70.4,27.4375 70.4,27.7813 L70.4,28.15 Q70.4,28.5625 70.7375,28.8375 Q71.075,29.1125 71.675,29.1125 Q72.0313,29.1125 72.2813,29.0313 Q72.425,28.9875 72.5875,28.8438 Q72.6938,28.7625 72.75,28.7375 Q72.8063,28.7125 72.875,28.7125 Q73.0063,28.7125 73.1031,28.8156 Q73.2,28.9188 73.2,29.0625 Q73.2,29.2 73.0625,29.3625 Q72.8625,29.6 72.5438,29.7313 Q72.125,29.9125 71.6125,29.9125 Q71.0125,29.9125 70.5313,29.675 Q70.1438,29.4875 69.8719,29.0813 Q69.6,28.675 69.6,28.1938 L69.6,27.7563 Q69.6,27.2563 69.8406,26.8188 Q70.0813,26.3813 70.5031,26.1469 Q70.925,25.9125 71.4,25.9125 Q71.6875,25.9125 71.9375,26.0125 Q72.1875,26.1125 72.4,26.3125 Z "/><text fill="#000000" font-family="sans-serif" font-size="4.8" lengthAdjust="spacingAndGlyphs" textLength="25.6" x="77.2" y="29.6766">BasePlugin</text><line style="stroke: #A80036; stroke-width: 0.6000000089406967;" x1="66" x2="103.6" y1="34.1125" y2="34.1125"/><line style="stroke: #A80036; stroke-width: 0.6000000089406967;" x1="66" x2="103.6" y1="37.3125" y2="37.3125"/><!--class HealthData--><rect fill="#FEFECE" filter="url(#f13vz5o7qcp11i)" height="19.2" id="HealthData" style="stroke: #A80036; stroke-width: 0.6000000089406967;" width="37.6" x="156.4" y="261.7125"/><ellipse cx="162.4" cy="268.1125" fill="#ADD1B2" rx="4.4" ry="4.4" style="stroke: #A80036; stroke-width: 0.4000000059604645;"/><path d="M163.2,266.7125 Q163.2813,266.5125 163.375,266.4125 Q163.4688,266.3125 163.575,266.3125 Q163.7625,266.3125 163.8813,266.425 Q164,266.5375 164,266.8 L164,267.425 Q164,267.6875 163.8875,267.8 Q163.775,267.9125 163.6,267.9125 Q163.4438,267.9125 163.3438,267.8438 Q163.2438,267.775 163.2,267.5938 Q163.1813,267.4688 163.1125,267.4 Q162.9875,267.2688 162.7625,267.1906 Q162.5375,267.1125 162.3125,267.1125 Q162.0313,267.1125 161.7969,267.225 Q161.5625,267.3375 161.3813,267.5875 Q161.2,267.8375 161.2,268.1813 L161.2,268.55 Q161.2,268.9625 161.5375,269.2375 Q161.875,269.5125 162.475,269.5125 Q162.8313,269.5125 163.0813,269.4313 Q163.225,269.3875 163.3875,269.2438 Q163.4938,269.1625 163.55,269.1375 Q163.6063,269.1125 163.675,269.1125 Q163.8063,269.1125 163.9031,269.2156 Q164,269.3188 164,269.4625 Q164,269.6 163.8625,269.7625 Q163.6625,270 163.3438,270.1313 Q162.925,270.3125 162.4125,270.3125 Q161.8125,270.3125 161.3313,270.075 Q160.9438,269.8875 160.6719,269.4813 Q160.4,269.075 160.4,268.5938 L160.4,268.1563 Q160.4,267.6563 160.6406,267.2188 Q160.8813,266.7813 161.3031,266.5469 Q161.725,266.3125 162.2,266.3125 Q162.4875,266.3125 162.7375,266.4125 Q162.9875,266.5125 163.2,266.7125 Z "/><text fill="#000000" font-family="sans-serif" font-size="4.8" lengthAdjust="spacingAndGlyphs" textLength="24.8" x="168" y="270.0766">HealthData</text><line style="stroke: #A80036; stroke-width: 0.6000000089406967;" x1="156.8" x2="193.6" y1="274.5125" y2="274.5125"/><line style="stroke: #A80036; stroke-width: 0.6000000089406967;" x1="156.8" x2="193.6" y1="277.7125" y2="277.7125"/><!--link CompletionListener to HybridReference--><path d="M534,48.7077 C534,66.9721 534,96.3785 534,120.8305 " fill="none" id="CompletionListener-HybridReference" style="stroke: #A80036; stroke-width: 0.4000000059604645;"/><polygon fill="none" points="531.2,48.5945,534,40.5945,536.8,48.5945,531.2,48.5945" style="stroke: #A80036; stroke-width: 0.4000000059604645;"/><!--link MicrocontrollerListener to LolinExample--><path d="M130.4036,45.6149 C126.7344,48.7621 123.204,52.3045 120.4,56.1125 C102.9408,79.8241 91.7904,111.7993 85.4752,134.6441 " fill="none" id="MicrocontrollerListener-LolinExample" style="stroke: #A80036; stroke-width: 0.4000000059604645;"/><polygon fill="none" points="128.8,43.3141,136.8164,40.5613,132.266,47.7121,128.8,43.3141" style="stroke: #A80036; stroke-width: 0.4000000059604645;"/><!--link BasePlugin to LolinExample--><path d="M84.012,48.6453 C83.0184,70.5073 81.296,108.4041 80.1044,134.6145 " fill="none" id="BasePlugin-LolinExample" style="stroke: #A80036; stroke-width: 0.4000000059604645;"/><polygon fill="none" points="81.2176,48.4589,84.378,40.5945,86.812,48.7133,81.2176,48.4589" style="stroke: #A80036; stroke-width: 0.4000000059604645;"/><!--link MicrocontrollerListener to LolinMultiExample--><path d="M154.6748,48.5109 C158.1876,68.1589 164.0384,100.8837 168.5964,126.3781 " fill="none" id="MicrocontrollerListener-LolinMultiExample" style="stroke: #A80036; stroke-width: 0.4000000059604645;"/><polygon fill="none" points="151.9112,48.9625,153.2596,40.5945,157.424,47.9769,151.9112,48.9625" style="stroke: #A80036; stroke-width: 0.4000000059604645;"/><!--link BasePlugin to LolinMultiExample--><path d="M108.1852,45.1269 C112.5732,48.3753 116.8812,52.0797 120.4,56.1125 C138.4368,76.7833 152.3832,104.4369 161.6928,126.4793 " fill="none" id="BasePlugin-LolinMultiExample" style="stroke: #A80036; stroke-width: 0.4000000059604645;"/><polygon fill="none" points="106.5588,47.4069,101.556,40.5649,109.7336,42.7937,106.5588,47.4069" style="stroke: #A80036; stroke-width: 0.4000000059604645;"/><!--link LolinMultiExample to HealthData--><path d="M175.2,206.2705 C175.2,226.6193 175.2,249.2493 175.2,261.6045 " fill="none" id="LolinMultiExample-HealthData" style="stroke: #A80036; stroke-width: 0.4000000059604645;"/><polygon fill="#FFFFFF" points="175.2,201.0165,173.6,203.4165,175.2,205.8165,176.8,203.4165,175.2,201.0165" style="stroke: #A80036; stroke-width: 0.4000000059604645;"/><text fill="#000000" font-family="sans-serif" font-size="5.2" lengthAdjust="spacingAndGlyphs" textLength="24.8" x="175.6" y="248.3106">healthData</text><text fill="#888888" font-family="sans-serif" font-size="4" lengthAdjust="spacingAndGlyphs" textLength="0" x="768.8" y="289.0648"/><text fill="#888888" font-family="sans-serif" font-size="4" lengthAdjust="spacingAndGlyphs" textLength="0" x="768.8" y="294.0961"/><text fill="#888888" font-family="sans-serif" font-size="4" lengthAdjust="spacingAndGlyphs" textLength="156.8" x="612" y="299.1273">PlantUML diagram generated by SketchIt! (https://bitbucket.org/pmesmeur/sketch.it)</text><text fill="#888888" font-family="sans-serif" font-size="4" lengthAdjust="spacingAndGlyphs" textLength="157.6" x="611.2" y="304.1586">For more information about this tool, please contact philippe.mesmeur@gmail.com</text><!--
@startuml

title __BACKEND2's Class Diagram__\n

  package sud_tanj.com.icare {
    package sud_tanj.com.icare.Backend {
      package sud_tanj.com.icare.Backend.Preferences {
        class HybridPreferences {
            {static} # context : Context
            {static} - sharedFirebasePreferences : SharedFirebasePreferences
            {static} + init()
            {static} + getFirebaseInstance()
        }
      }
    }
  }
  

  package sud_tanj.com.icare {
    package sud_tanj.com.icare.Backend {
      package sud_tanj.com.icare.Backend.Database {
        class HybridReference {
            {static} # PAPER_OFFLINE_KEY_COLLECTION : String
            - databaseReference : DatabaseReference
            - completionListener : CompletionListener
            {static} - isPersistenceSet : boolean
            + HybridReference()
            + setValue()
            {static} + init()
            + setValue()
            - cacheToFirebase()
            - cacheToPaper()
            + onComplete()
            + getDatabaseReference()
        }
      }
    }
  }
  

  package sud_tanj.com.icare {
    package sud_tanj.com.icare.Backend {
      package sud_tanj.com.icare.Backend.Microcontrollers {
        package sud_tanj.com.icare.Backend.Microcontrollers.CustomMicrocontroller {
          class LolinESP8266 {
              {static} + LOLIN_URL : String
              {static} - lolinESP8266 : LolinESP8266
              {static} + getInstance()
              + LolinESP8266()
              + run()
          }
        }
      }
    }
  }
  

  package sud_tanj.com.icare {
    package sud_tanj.com.icare.Backend {
      package sud_tanj.com.icare.Backend.Microcontrollers {
        package sud_tanj.com.icare.Backend.Microcontrollers.CustomMicrocontroller {
          class LolinESP8266Multi {
              {static} + LOLIN_URL : String
              {static} + NEW_IP : String
              {static} - lolinESP8266Multi : LolinESP8266Multi
              - ipAddress : List<String>
              {static} + getInstance()
              + LolinESP8266Multi()
              + run()
          }
        }
      }
    }
  }
  

  package sud_tanj.com.icare {
    package sud_tanj.com.icare.Backend {
      package sud_tanj.com.icare.Backend.Plugins {
        package sud_tanj.com.icare.Backend.Plugins.CustomPlugins {
          class LolinExample {
              {static} + IDENTIFICATION : String
              - value : String
              {static} - arduinoExample : LolinExample
              + onDispose()
              {static} + getInstance()
              + onDataReceived()
              + run()
          }
        }
      }
    }
  }
  

  package sud_tanj.com.icare {
    package sud_tanj.com.icare.Backend {
      package sud_tanj.com.icare.Backend.Plugins {
        package sud_tanj.com.icare.Backend.Plugins.CustomPlugins {
          class LolinMultiExample {
              {static} + FIRST_MICROCONTROLLER_TAG : String
              {static} + SECOND_MICROCONTROLLER_TAG : String
              {static} + IDENTIFICATION : String
              {static} - lolinMultiExample : LolinMultiExample
              - firstMicrocontrollerValue : String
              - secondMicrocontrollerValue : String
              {static} + getInstance()
              + run()
              + onDispose()
              + onDataReceived()
          }
        }
      }
    }
  }
  

  HybridReference -up-|> CompletionListener
  LolinExample -up-|> MicrocontrollerListener
  LolinExample -up-|> BasePlugin
  LolinMultiExample -up-|> MicrocontrollerListener
  LolinMultiExample -up-|> BasePlugin
  LolinMultiExample o- - HealthData : healthData


right footer


PlantUML diagram generated by SketchIt! (https://bitbucket.org/pmesmeur/sketch.it)
For more information about this tool, please contact philippe.mesmeur@gmail.com
endfooter

@enduml

PlantUML version 1.2018.09(Fri Jul 27 23:58:18 ICT 2018)
(GPL source distribution)
Java Runtime: OpenJDK Runtime Environment
JVM: OpenJDK 64-Bit Server VM
Java Version: 1.8.0_152-release-1024-b02
Operating System: Windows 10
OS Version: 10.0
Default Encoding: Cp1252
Language: en
Country: ID
--></g></svg>