<?xml version="1.0" encoding="UTF-8" standalone="no"?><svg xmlns="http://www.w3.org/2000/svg" xmlns:xlink="http://www.w3.org/1999/xlink" contentScriptType="application/ecmascript" contentStyleType="text/css" height="305.6px" preserveAspectRatio="none" style="width:689px;height:305px;" version="1.1" viewBox="0 0 689 305" width="689.2px" zoomAndPan="magnify"><defs><filter height="300%" id="fo3m2ulhu4453" width="300%" x="-1" y="-1"><feGaussianBlur result="blurOut" stdDeviation="0.800000011920929"/><feColorMatrix in="blurOut" result="blurOut2" type="matrix" values="0 0 0 0 0 0 0 0 0 0 0 0 0 0 0 0 0 0 .4 0"/><feOffset dx="1.600000023841858" dy="1.600000023841858" in="blurOut2" result="blurOut3"/><feBlend in="SourceGraphic" in2="blurOut3" mode="normal"/></filter></defs><g><text fill="#000000" font-family="sans-serif" font-size="7.2" lengthAdjust="spacingAndGlyphs" text-decoration="underline" textLength="98" x="293.2" y="7.4742">FRONTEND2's Class Diagram</text><line style="stroke: #000000; stroke-width: 1.0;" x1="293.2" x2="391.2" y1="8.2742" y2="8.2742"/><text fill="#000000" font-family="sans-serif" font-size="7.2" lengthAdjust="spacingAndGlyphs" textLength="0" x="343.2" y="16.5305"/><!--cluster sud_tanj.com.icare--><polygon fill="#FFFFFF" filter="url(#fo3m2ulhu4453)" points="8.8,59.3125,64,59.3125,66.8,68.7563,610,68.7563,610,270.9125,8.8,270.9125,8.8,59.3125" style="stroke: #000000; stroke-width: 0.6000000089406967;"/><line style="stroke: #000000; stroke-width: 0.6000000089406967;" x1="8.8" x2="66.8" y1="68.7563" y2="68.7563"/><text fill="#000000" font-family="sans-serif" font-size="5.6" font-weight="bold" lengthAdjust="spacingAndGlyphs" textLength="52.8" x="10.4" y="65.9258">sud_tanj.com.icare</text><!--cluster sud_tanj.com.icare.Frontend.Fragment--><polygon fill="#FFFFFF" filter="url(#fo3m2ulhu4453)" points="139.6,76.9125,250.8,76.9125,253.6,86.3563,600.4,86.3563,600.4,261.3125,139.6,261.3125,139.6,76.9125" style="stroke: #000000; stroke-width: 0.6000000089406967;"/><line style="stroke: #000000; stroke-width: 0.6000000089406967;" x1="139.6" x2="253.6" y1="86.3563" y2="86.3563"/><text fill="#000000" font-family="sans-serif" font-size="5.6" font-weight="bold" lengthAdjust="spacingAndGlyphs" textLength="108.8" x="141.2" y="83.5258">sud_tanj.com.icare.Frontend.Fragment</text><!--cluster sud_tanj.com.icare.Frontend.Fragment.SensorCatalogue--><polygon fill="#FFFFFF" filter="url(#fo3m2ulhu4453)" points="209.2,112.1125,370.4,112.1125,373.2,121.5563,374.4,121.5563,374.4,251.7125,209.2,251.7125,209.2,112.1125" style="stroke: #000000; stroke-width: 0.6000000089406967;"/><line style="stroke: #000000; stroke-width: 0.6000000089406967;" x1="209.2" x2="373.2" y1="121.5563" y2="121.5563"/><text fill="#000000" font-family="sans-serif" font-size="5.6" font-weight="bold" lengthAdjust="spacingAndGlyphs" textLength="158.8" x="210.8" y="118.7258">sud_tanj.com.icare.Frontend.Fragment.SensorCatalogue</text><!--cluster sud_tanj.com.icare.Frontend.Fragment.DataCatalogue--><polygon fill="#FFFFFF" filter="url(#fo3m2ulhu4453)" points="384,94.5125,537.6,94.5125,540.4,103.9563,590.8,103.9563,590.8,183.7125,384,183.7125,384,94.5125" style="stroke: #000000; stroke-width: 0.6000000089406967;"/><line style="stroke: #000000; stroke-width: 0.6000000089406967;" x1="384" x2="540.4" y1="103.9563" y2="103.9563"/><text fill="#000000" font-family="sans-serif" font-size="5.6" font-weight="bold" lengthAdjust="spacingAndGlyphs" textLength="151.2" x="385.6" y="101.1258">sud_tanj.com.icare.Frontend.Fragment.DataCatalogue</text><!--cluster sud_tanj.com.icare.Frontend.Fragment.DataCatalogue.DataDetail--><polygon fill="#FFFFFF" filter="url(#fo3m2ulhu4453)" points="393.6,112.1125,577.2,112.1125,580,121.5563,581.2,121.5563,581.2,174.1125,393.6,174.1125,393.6,112.1125" style="stroke: #000000; stroke-width: 0.6000000089406967;"/><line style="stroke: #000000; stroke-width: 0.6000000089406967;" x1="393.6" x2="580" y1="121.5563" y2="121.5563"/><text fill="#000000" font-family="sans-serif" font-size="5.6" font-weight="bold" lengthAdjust="spacingAndGlyphs" textLength="181.2" x="395.2" y="118.7258">sud_tanj.com.icare.Frontend.Fragment.DataCatalogue.DataDetail</text><!--cluster sud_tanj.com.icare.Frontend.Listener--><polygon fill="#FFFFFF" filter="url(#fo3m2ulhu4453)" points="18.4,112.1125,126,112.1125,128.8,121.5563,130,121.5563,130,174.1125,18.4,174.1125,18.4,112.1125" style="stroke: #000000; stroke-width: 0.6000000089406967;"/><line style="stroke: #000000; stroke-width: 0.6000000089406967;" x1="18.4" x2="128.8" y1="121.5563" y2="121.5563"/><text fill="#000000" font-family="sans-serif" font-size="5.6" font-weight="bold" lengthAdjust="spacingAndGlyphs" textLength="105.2" x="20" y="118.7258">sud_tanj.com.icare.Frontend.Listener</text><!--class FragmentBuilder--><rect fill="#FEFECE" filter="url(#fo3m2ulhu4453)" height="52.4063" id="FragmentBuilder" style="stroke: #A80036; stroke-width: 0.6000000089406967;" width="56.8" x="146" y="120.9125"/><ellipse cx="155.24" cy="127.3125" fill="#ADD1B2" rx="4.4" ry="4.4" style="stroke: #A80036; stroke-width: 0.4000000059604645;"/><path d="M156.04,125.9125 Q156.1213,125.7125 156.215,125.6125 Q156.3088,125.5125 156.415,125.5125 Q156.6025,125.5125 156.7213,125.625 Q156.84,125.7375 156.84,126 L156.84,126.625 Q156.84,126.8875 156.7275,127 Q156.615,127.1125 156.44,127.1125 Q156.2838,127.1125 156.1838,127.0438 Q156.0838,126.975 156.04,126.7938 Q156.0213,126.6688 155.9525,126.6 Q155.8275,126.4688 155.6025,126.3906 Q155.3775,126.3125 155.1525,126.3125 Q154.8713,126.3125 154.6369,126.425 Q154.4025,126.5375 154.2213,126.7875 Q154.04,127.0375 154.04,127.3813 L154.04,127.75 Q154.04,128.1625 154.3775,128.4375 Q154.715,128.7125 155.315,128.7125 Q155.6713,128.7125 155.9213,128.6313 Q156.065,128.5875 156.2275,128.4438 Q156.3338,128.3625 156.39,128.3375 Q156.4463,128.3125 156.515,128.3125 Q156.6463,128.3125 156.7431,128.4156 Q156.84,128.5188 156.84,128.6625 Q156.84,128.8 156.7025,128.9625 Q156.5025,129.2 156.1838,129.3313 Q155.765,129.5125 155.2525,129.5125 Q154.6525,129.5125 154.1713,129.275 Q153.7838,129.0875 153.5119,128.6813 Q153.24,128.275 153.24,127.7938 L153.24,127.3563 Q153.24,126.8563 153.4806,126.4188 Q153.7213,125.9813 154.1431,125.7469 Q154.565,125.5125 155.04,125.5125 Q155.3275,125.5125 155.5775,125.6125 Q155.8275,125.7125 156.04,125.9125 Z "/><text fill="#000000" font-family="sans-serif" font-size="4.8" lengthAdjust="spacingAndGlyphs" textLength="36.8" x="161.56" y="129.2766">FragmentBuilder</text><line style="stroke: #A80036; stroke-width: 0.6000000089406967;" x1="146.4" x2="202.4" y1="133.7125" y2="133.7125"/><rect fill="none" height="2.4" style="stroke: #C82930; stroke-width: 0.4000000059604645;" width="2.4" x="149.2" y="137.4797"/><text fill="#000000" font-family="sans-serif" font-size="4.4" lengthAdjust="spacingAndGlyphs" text-decoration="underline" textLength="29.6" x="154" y="139.8801">builder : Builder</text><line style="stroke: #000000; stroke-width: 1.0;" x1="154" x2="183.6" y1="140.6801" y2="140.6801"/><rect fill="none" height="2.4" style="stroke: #C82930; stroke-width: 0.4000000059604645;" width="2.4" x="149.2" y="143.0141"/><text fill="#000000" font-family="sans-serif" font-size="4.4" lengthAdjust="spacingAndGlyphs" text-decoration="underline" textLength="46.4" x="154" y="145.4145">lastFragment : Fragment</text><line style="stroke: #000000; stroke-width: 1.0;" x1="154" x2="200.4" y1="146.2145" y2="146.2145"/><line style="stroke: #A80036; stroke-width: 0.6000000089406967;" x1="146.4" x2="202.4" y1="147.9813" y2="147.9813"/><ellipse cx="150.4" cy="152.9484" fill="#84BE84" rx="1.2" ry="1.2" style="stroke: #038048; stroke-width: 0.4000000059604645;"/><text fill="#000000" font-family="sans-serif" font-size="4.4" lengthAdjust="spacingAndGlyphs" text-decoration="underline" textLength="8.4" x="154" y="154.1488">init()</text><line style="stroke: #000000; stroke-width: 1.0;" x1="154" x2="162.4" y1="154.9488" y2="154.9488"/><ellipse cx="150.4" cy="158.4828" fill="#84BE84" rx="1.2" ry="1.2" style="stroke: #038048; stroke-width: 0.4000000059604645;"/><text fill="#000000" font-family="sans-serif" font-size="4.4" lengthAdjust="spacingAndGlyphs" text-decoration="underline" textLength="42.4" x="154" y="159.6832">launchLastFragment()</text><line style="stroke: #000000; stroke-width: 1.0;" x1="154" x2="196.4" y1="160.4832" y2="160.4832"/><ellipse cx="150.4" cy="164.0172" fill="#84BE84" rx="1.2" ry="1.2" style="stroke: #038048; stroke-width: 0.4000000059604645;"/><text fill="#000000" font-family="sans-serif" font-size="4.4" lengthAdjust="spacingAndGlyphs" text-decoration="underline" textLength="35.6" x="154" y="165.2176">changeFragment()</text><line style="stroke: #000000; stroke-width: 1.0;" x1="154" x2="189.6" y1="166.0176" y2="166.0176"/><ellipse cx="150.4" cy="169.5516" fill="#84BE84" rx="1.2" ry="1.2" style="stroke: #038048; stroke-width: 0.4000000059604645;"/><text fill="#000000" font-family="sans-serif" font-size="4.4" lengthAdjust="spacingAndGlyphs" text-decoration="underline" textLength="35.6" x="154" y="170.752">getLastFragment()</text><line style="stroke: #000000; stroke-width: 1.0;" x1="154" x2="189.6" y1="171.552" y2="171.552"/><!--class FirebaseMonitoringAdapter--><rect fill="#FEFECE" filter="url(#fo3m2ulhu4453)" height="41.3375" id="FirebaseMonitoringAdapter" style="stroke: #A80036; stroke-width: 0.6000000089406967;" width="72" x="256.4" y="126.5125"/><ellipse cx="262.4" cy="132.9125" fill="#ADD1B2" rx="4.4" ry="4.4" style="stroke: #A80036; stroke-width: 0.4000000059604645;"/><path d="M263.2,131.5125 Q263.2813,131.3125 263.375,131.2125 Q263.4688,131.1125 263.575,131.1125 Q263.7625,131.1125 263.8813,131.225 Q264,131.3375 264,131.6 L264,132.225 Q264,132.4875 263.8875,132.6 Q263.775,132.7125 263.6,132.7125 Q263.4438,132.7125 263.3438,132.6438 Q263.2438,132.575 263.2,132.3938 Q263.1813,132.2688 263.1125,132.2 Q262.9875,132.0688 262.7625,131.9906 Q262.5375,131.9125 262.3125,131.9125 Q262.0313,131.9125 261.7969,132.025 Q261.5625,132.1375 261.3813,132.3875 Q261.2,132.6375 261.2,132.9813 L261.2,133.35 Q261.2,133.7625 261.5375,134.0375 Q261.875,134.3125 262.475,134.3125 Q262.8313,134.3125 263.0813,134.2313 Q263.225,134.1875 263.3875,134.0438 Q263.4938,133.9625 263.55,133.9375 Q263.6063,133.9125 263.675,133.9125 Q263.8063,133.9125 263.9031,134.0156 Q264,134.1188 264,134.2625 Q264,134.4 263.8625,134.5625 Q263.6625,134.8 263.3438,134.9313 Q262.925,135.1125 262.4125,135.1125 Q261.8125,135.1125 261.3313,134.875 Q260.9438,134.6875 260.6719,134.2813 Q260.4,133.875 260.4,133.3938 L260.4,132.9563 Q260.4,132.4563 260.6406,132.0188 Q260.8813,131.5813 261.3031,131.3469 Q261.725,131.1125 262.2,131.1125 Q262.4875,131.1125 262.7375,131.2125 Q262.9875,131.3125 263.2,131.5125 Z "/><text fill="#000000" font-family="sans-serif" font-size="4.8" lengthAdjust="spacingAndGlyphs" textLength="59.2" x="268" y="134.8766">FirebaseMonitoringAdapter</text><line style="stroke: #A80036; stroke-width: 0.6000000089406967;" x1="256.8" x2="328" y1="139.3125" y2="139.3125"/><rect fill="none" height="2.4" style="stroke: #C82930; stroke-width: 0.4000000059604645;" width="2.4" x="259.6" y="143.0797"/><text fill="#000000" font-family="sans-serif" font-size="4.4" lengthAdjust="spacingAndGlyphs" textLength="38.4" x="264.4" y="145.4801">sensorUi : SensorUi</text><line style="stroke: #A80036; stroke-width: 0.6000000089406967;" x1="256.8" x2="328" y1="148.0469" y2="148.0469"/><ellipse cx="260.8" cy="153.0141" fill="#84BE84" rx="1.2" ry="1.2" style="stroke: #038048; stroke-width: 0.4000000059604645;"/><text fill="#000000" font-family="sans-serif" font-size="4.4" lengthAdjust="spacingAndGlyphs" textLength="55.2" x="264.4" y="154.2145">FirebaseMonitoringAdapter()</text><polygon fill="#FFFF44" points="260.8,156.5484,262.4,158.1484,260.8,159.7484,259.2,158.1484" style="stroke: #B38D22; stroke-width: 0.4000000059604645;"/><text fill="#000000" font-family="sans-serif" font-size="4.4" lengthAdjust="spacingAndGlyphs" textLength="39.2" x="264.4" y="159.7488">onBindViewHolder()</text><ellipse cx="260.8" cy="164.0828" fill="#84BE84" rx="1.2" ry="1.2" style="stroke: #038048; stroke-width: 0.4000000059604645;"/><text fill="#000000" font-family="sans-serif" font-size="4.4" lengthAdjust="spacingAndGlyphs" textLength="43.6" x="264.4" y="165.2832">onCreateViewHolder()</text><!--class MonitoringHolder--><rect fill="#FEFECE" filter="url(#fo3m2ulhu4453)" height="35.8031" id="MonitoringHolder" style="stroke: #A80036; stroke-width: 0.6000000089406967;" width="57.2" x="263.8" y="209.3125"/><ellipse cx="272.86" cy="215.7125" fill="#ADD1B2" rx="4.4" ry="4.4" style="stroke: #A80036; stroke-width: 0.4000000059604645;"/><path d="M273.66,214.3125 Q273.7413,214.1125 273.835,214.0125 Q273.9288,213.9125 274.035,213.9125 Q274.2225,213.9125 274.3413,214.025 Q274.46,214.1375 274.46,214.4 L274.46,215.025 Q274.46,215.2875 274.3475,215.4 Q274.235,215.5125 274.06,215.5125 Q273.9038,215.5125 273.8038,215.4438 Q273.7038,215.375 273.66,215.1938 Q273.6413,215.0688 273.5725,215 Q273.4475,214.8688 273.2225,214.7906 Q272.9975,214.7125 272.7725,214.7125 Q272.4913,214.7125 272.2569,214.825 Q272.0225,214.9375 271.8413,215.1875 Q271.66,215.4375 271.66,215.7813 L271.66,216.15 Q271.66,216.5625 271.9975,216.8375 Q272.335,217.1125 272.935,217.1125 Q273.2913,217.1125 273.5413,217.0313 Q273.685,216.9875 273.8475,216.8438 Q273.9538,216.7625 274.01,216.7375 Q274.0663,216.7125 274.135,216.7125 Q274.2663,216.7125 274.3631,216.8156 Q274.46,216.9188 274.46,217.0625 Q274.46,217.2 274.3225,217.3625 Q274.1225,217.6 273.8038,217.7313 Q273.385,217.9125 272.8725,217.9125 Q272.2725,217.9125 271.7913,217.675 Q271.4038,217.4875 271.1319,217.0813 Q270.86,216.675 270.86,216.1938 L270.86,215.7563 Q270.86,215.2563 271.1006,214.8188 Q271.3413,214.3813 271.7631,214.1469 Q272.185,213.9125 272.66,213.9125 Q272.9475,213.9125 273.1975,214.0125 Q273.4475,214.1125 273.66,214.3125 Z "/><text fill="#000000" font-family="sans-serif" font-size="4.8" lengthAdjust="spacingAndGlyphs" textLength="37.6" x="279.14" y="217.6766">MonitoringHolder</text><line style="stroke: #A80036; stroke-width: 0.6000000089406967;" x1="264.2" x2="320.6" y1="222.1125" y2="222.1125"/><polygon fill="none" points="268.2,225.4797,266.6,227.8797,269.8,227.8797" style="stroke: #1963A0; stroke-width: 0.4000000059604645;"/><text fill="#000000" font-family="sans-serif" font-size="4.4" lengthAdjust="spacingAndGlyphs" textLength="46.8" x="271.8" y="228.2801">imageView : ImageView</text><line style="stroke: #A80036; stroke-width: 0.6000000089406967;" x1="264.2" x2="320.6" y1="230.8469" y2="230.8469"/><ellipse cx="268.2" cy="235.8141" fill="#84BE84" rx="1.2" ry="1.2" style="stroke: #038048; stroke-width: 0.4000000059604645;"/><text fill="#000000" font-family="sans-serif" font-size="4.4" lengthAdjust="spacingAndGlyphs" textLength="35.2" x="271.8" y="237.0145">MonitoringHolder()</text><ellipse cx="268.2" cy="241.3484" fill="#84BE84" rx="1.2" ry="1.2" style="stroke: #038048; stroke-width: 0.4000000059604645;"/><text fill="#000000" font-family="sans-serif" font-size="4.4" lengthAdjust="spacingAndGlyphs" textLength="30.8" x="271.8" y="242.5488">getImageView()</text><!--class GraphEventListener--><rect fill="#FEFECE" filter="url(#fo3m2ulhu4453)" height="41.3375" id="GraphEventListener" style="stroke: #A80036; stroke-width: 0.6000000089406967;" width="59.6" x="515" y="126.5125"/><ellipse cx="522.44" cy="132.9125" fill="#ADD1B2" rx="4.4" ry="4.4" style="stroke: #A80036; stroke-width: 0.4000000059604645;"/><path d="M523.24,131.5125 Q523.3213,131.3125 523.415,131.2125 Q523.5088,131.1125 523.615,131.1125 Q523.8025,131.1125 523.9213,131.225 Q524.04,131.3375 524.04,131.6 L524.04,132.225 Q524.04,132.4875 523.9275,132.6 Q523.815,132.7125 523.64,132.7125 Q523.4838,132.7125 523.3838,132.6438 Q523.2838,132.575 523.24,132.3938 Q523.2213,132.2688 523.1525,132.2 Q523.0275,132.0688 522.8025,131.9906 Q522.5775,131.9125 522.3525,131.9125 Q522.0713,131.9125 521.8369,132.025 Q521.6025,132.1375 521.4213,132.3875 Q521.24,132.6375 521.24,132.9813 L521.24,133.35 Q521.24,133.7625 521.5775,134.0375 Q521.915,134.3125 522.515,134.3125 Q522.8713,134.3125 523.1213,134.2313 Q523.265,134.1875 523.4275,134.0438 Q523.5338,133.9625 523.59,133.9375 Q523.6463,133.9125 523.715,133.9125 Q523.8463,133.9125 523.9431,134.0156 Q524.04,134.1188 524.04,134.2625 Q524.04,134.4 523.9025,134.5625 Q523.7025,134.8 523.3838,134.9313 Q522.965,135.1125 522.4525,135.1125 Q521.8525,135.1125 521.3713,134.875 Q520.9838,134.6875 520.7119,134.2813 Q520.44,133.875 520.44,133.3938 L520.44,132.9563 Q520.44,132.4563 520.6806,132.0188 Q520.9213,131.5813 521.3431,131.3469 Q521.765,131.1125 522.24,131.1125 Q522.5275,131.1125 522.7775,131.2125 Q523.0275,131.3125 523.24,131.5125 Z "/><text fill="#000000" font-family="sans-serif" font-size="4.8" lengthAdjust="spacingAndGlyphs" textLength="43.6" x="528.36" y="134.8766">GraphEventListener</text><line style="stroke: #A80036; stroke-width: 0.6000000089406967;" x1="515.4" x2="574.2" y1="139.3125" y2="139.3125"/><rect fill="none" height="2.4" style="stroke: #C82930; stroke-width: 0.4000000059604645;" width="2.4" x="518.2" y="143.0797"/><text fill="#000000" font-family="sans-serif" font-size="4.4" lengthAdjust="spacingAndGlyphs" textLength="49.2" x="523" y="145.4801">lineChartView : LineChart</text><line style="stroke: #A80036; stroke-width: 0.6000000089406967;" x1="515.4" x2="574.2" y1="148.0469" y2="148.0469"/><ellipse cx="519.4" cy="153.0141" fill="#84BE84" rx="1.2" ry="1.2" style="stroke: #038048; stroke-width: 0.4000000059604645;"/><text fill="#000000" font-family="sans-serif" font-size="4.4" lengthAdjust="spacingAndGlyphs" textLength="41.6" x="523" y="154.2145">GraphEventListener()</text><ellipse cx="519.4" cy="158.5484" fill="#84BE84" rx="1.2" ry="1.2" style="stroke: #038048; stroke-width: 0.4000000059604645;"/><text fill="#000000" font-family="sans-serif" font-size="4.4" lengthAdjust="spacingAndGlyphs" textLength="31.6" x="523" y="159.7488">onDataChange()</text><ellipse cx="519.4" cy="164.0828" fill="#84BE84" rx="1.2" ry="1.2" style="stroke: #038048; stroke-width: 0.4000000059604645;"/><text fill="#000000" font-family="sans-serif" font-size="4.4" lengthAdjust="spacingAndGlyphs" textLength="26.8" x="523" y="165.2832">onCancelled()</text><!--class FirebaseProfilePictureListener--><rect fill="#FEFECE" filter="url(#fo3m2ulhu4453)" height="41.3375" id="FirebaseProfilePictureListener" style="stroke: #A80036; stroke-width: 0.6000000089406967;" width="79.6" x="34.2" y="126.5125"/><ellipse cx="40.2" cy="132.9125" fill="#ADD1B2" rx="4.4" ry="4.4" style="stroke: #A80036; stroke-width: 0.4000000059604645;"/><path d="M41,131.5125 Q41.0813,131.3125 41.175,131.2125 Q41.2688,131.1125 41.375,131.1125 Q41.5625,131.1125 41.6813,131.225 Q41.8,131.3375 41.8,131.6 L41.8,132.225 Q41.8,132.4875 41.6875,132.6 Q41.575,132.7125 41.4,132.7125 Q41.2438,132.7125 41.1438,132.6438 Q41.0438,132.575 41,132.3938 Q40.9813,132.2688 40.9125,132.2 Q40.7875,132.0688 40.5625,131.9906 Q40.3375,131.9125 40.1125,131.9125 Q39.8313,131.9125 39.5969,132.025 Q39.3625,132.1375 39.1813,132.3875 Q39,132.6375 39,132.9813 L39,133.35 Q39,133.7625 39.3375,134.0375 Q39.675,134.3125 40.275,134.3125 Q40.6313,134.3125 40.8813,134.2313 Q41.025,134.1875 41.1875,134.0438 Q41.2938,133.9625 41.35,133.9375 Q41.4063,133.9125 41.475,133.9125 Q41.6063,133.9125 41.7031,134.0156 Q41.8,134.1188 41.8,134.2625 Q41.8,134.4 41.6625,134.5625 Q41.4625,134.8 41.1438,134.9313 Q40.725,135.1125 40.2125,135.1125 Q39.6125,135.1125 39.1313,134.875 Q38.7438,134.6875 38.4719,134.2813 Q38.2,133.875 38.2,133.3938 L38.2,132.9563 Q38.2,132.4563 38.4406,132.0188 Q38.6813,131.5813 39.1031,131.3469 Q39.525,131.1125 40,131.1125 Q40.2875,131.1125 40.5375,131.2125 Q40.7875,131.3125 41,131.5125 Z "/><text fill="#000000" font-family="sans-serif" font-size="4.8" lengthAdjust="spacingAndGlyphs" textLength="66.8" x="45.8" y="134.8766">FirebaseProfilePictureListener</text><line style="stroke: #A80036; stroke-width: 0.6000000089406967;" x1="34.6" x2="113.4" y1="139.3125" y2="139.3125"/><rect fill="none" height="2.4" style="stroke: #C82930; stroke-width: 0.4000000059604645;" width="2.4" x="37.4" y="143.0797"/><text fill="#000000" font-family="sans-serif" font-size="4.4" lengthAdjust="spacingAndGlyphs" textLength="56.8" x="42.2" y="145.4801">drawerProfile : DrawerProfile</text><rect fill="none" height="2.4" style="stroke: #C82930; stroke-width: 0.4000000059604645;" width="2.4" x="37.4" y="148.6141"/><text fill="#000000" font-family="sans-serif" font-size="4.4" lengthAdjust="spacingAndGlyphs" textLength="56.8" x="42.2" y="151.0145">baseActivity : DrawerActivity</text><line style="stroke: #A80036; stroke-width: 0.6000000089406967;" x1="34.6" x2="113.4" y1="153.5813" y2="153.5813"/><ellipse cx="38.6" cy="158.5484" fill="#84BE84" rx="1.2" ry="1.2" style="stroke: #038048; stroke-width: 0.4000000059604645;"/><text fill="#000000" font-family="sans-serif" font-size="4.4" lengthAdjust="spacingAndGlyphs" textLength="60.8" x="42.2" y="159.7488">FirebaseProfilePictureListener()</text><ellipse cx="38.6" cy="164.0828" fill="#84BE84" rx="1.2" ry="1.2" style="stroke: #038048; stroke-width: 0.4000000059604645;"/><text fill="#000000" font-family="sans-serif" font-size="4.4" lengthAdjust="spacingAndGlyphs" textLength="39.2" x="42.2" y="165.2832">onResourceReady()</text><!--class ValueEventListener--><rect fill="#FEFECE" filter="url(#fo3m2ulhu4453)" height="19.2" id="ValueEventListener" style="stroke: #A80036; stroke-width: 0.6000000089406967;" width="55.2" x="517.2" y="21.3125"/><ellipse cx="523.2" cy="27.7125" fill="#ADD1B2" rx="4.4" ry="4.4" style="stroke: #A80036; stroke-width: 0.4000000059604645;"/><path d="M524,26.3125 Q524.0813,26.1125 524.175,26.0125 Q524.2688,25.9125 524.375,25.9125 Q524.5625,25.9125 524.6813,26.025 Q524.8,26.1375 524.8,26.4 L524.8,27.025 Q524.8,27.2875 524.6875,27.4 Q524.575,27.5125 524.4,27.5125 Q524.2438,27.5125 524.1438,27.4438 Q524.0438,27.375 524,27.1938 Q523.9813,27.0688 523.9125,27 Q523.7875,26.8688 523.5625,26.7906 Q523.3375,26.7125 523.1125,26.7125 Q522.8313,26.7125 522.5969,26.825 Q522.3625,26.9375 522.1813,27.1875 Q522,27.4375 522,27.7813 L522,28.15 Q522,28.5625 522.3375,28.8375 Q522.675,29.1125 523.275,29.1125 Q523.6313,29.1125 523.8813,29.0313 Q524.025,28.9875 524.1875,28.8438 Q524.2938,28.7625 524.35,28.7375 Q524.4063,28.7125 524.475,28.7125 Q524.6063,28.7125 524.7031,28.8156 Q524.8,28.9188 524.8,29.0625 Q524.8,29.2 524.6625,29.3625 Q524.4625,29.6 524.1438,29.7313 Q523.725,29.9125 523.2125,29.9125 Q522.6125,29.9125 522.1313,29.675 Q521.7438,29.4875 521.4719,29.0813 Q521.2,28.675 521.2,28.1938 L521.2,27.7563 Q521.2,27.2563 521.4406,26.8188 Q521.6813,26.3813 522.1031,26.1469 Q522.525,25.9125 523,25.9125 Q523.2875,25.9125 523.5375,26.0125 Q523.7875,26.1125 524,26.3125 Z "/><text fill="#000000" font-family="sans-serif" font-size="4.8" lengthAdjust="spacingAndGlyphs" textLength="42.4" x="528.8" y="29.6766">ValueEventListener</text><line style="stroke: #A80036; stroke-width: 0.6000000089406967;" x1="517.6" x2="572" y1="34.1125" y2="34.1125"/><line style="stroke: #A80036; stroke-width: 0.6000000089406967;" x1="517.6" x2="572" y1="37.3125" y2="37.3125"/><!--class MonitoringInformation--><rect fill="#FEFECE" filter="url(#fo3m2ulhu4453)" height="19.2" id="MonitoringInformation" style="stroke: #A80036; stroke-width: 0.6000000089406967;" width="60.4" x="616.6" y="217.7125"/><ellipse cx="622.6" cy="224.1125" fill="#ADD1B2" rx="4.4" ry="4.4" style="stroke: #A80036; stroke-width: 0.4000000059604645;"/><path d="M623.4,222.7125 Q623.4813,222.5125 623.575,222.4125 Q623.6688,222.3125 623.775,222.3125 Q623.9625,222.3125 624.0813,222.425 Q624.2,222.5375 624.2,222.8 L624.2,223.425 Q624.2,223.6875 624.0875,223.8 Q623.975,223.9125 623.8,223.9125 Q623.6438,223.9125 623.5438,223.8438 Q623.4438,223.775 623.4,223.5938 Q623.3813,223.4688 623.3125,223.4 Q623.1875,223.2688 622.9625,223.1906 Q622.7375,223.1125 622.5125,223.1125 Q622.2313,223.1125 621.9969,223.225 Q621.7625,223.3375 621.5813,223.5875 Q621.4,223.8375 621.4,224.1813 L621.4,224.55 Q621.4,224.9625 621.7375,225.2375 Q622.075,225.5125 622.675,225.5125 Q623.0313,225.5125 623.2813,225.4313 Q623.425,225.3875 623.5875,225.2438 Q623.6938,225.1625 623.75,225.1375 Q623.8063,225.1125 623.875,225.1125 Q624.0063,225.1125 624.1031,225.2156 Q624.2,225.3188 624.2,225.4625 Q624.2,225.6 624.0625,225.7625 Q623.8625,226 623.5438,226.1313 Q623.125,226.3125 622.6125,226.3125 Q622.0125,226.3125 621.5313,226.075 Q621.1438,225.8875 620.8719,225.4813 Q620.6,225.075 620.6,224.5938 L620.6,224.1563 Q620.6,223.6563 620.8406,223.2188 Q621.0813,222.7813 621.5031,222.5469 Q621.925,222.3125 622.4,222.3125 Q622.6875,222.3125 622.9375,222.4125 Q623.1875,222.5125 623.4,222.7125 Z "/><text fill="#000000" font-family="sans-serif" font-size="4.8" lengthAdjust="spacingAndGlyphs" textLength="47.6" x="628.2" y="226.0766">MonitoringInformation</text><line style="stroke: #A80036; stroke-width: 0.6000000089406967;" x1="617" x2="676.6" y1="230.5125" y2="230.5125"/><line style="stroke: #A80036; stroke-width: 0.6000000089406967;" x1="617" x2="676.6" y1="233.7125" y2="233.7125"/><!--link FirebaseMonitoringAdapter to MonitoringHolder--><path d="M292.4,173.8357 C292.4,185.4785 292.4,198.8593 292.4,209.2729 " fill="none" id="FirebaseMonitoringAdapter-MonitoringHolder" style="stroke: #A80036; stroke-width: 0.4000000059604645;"/><ellipse cx="292.4" cy="170.9541" fill="#FFFFFF" rx="3.2" ry="3.2" style="stroke: #A80036; stroke-width: 0.4000000059604645;"/><line style="stroke: #A80036; stroke-width: 0.4000000059604645;" x1="292.4" x2="292.4" y1="174.1541" y2="167.7541"/><line style="stroke: #A80036; stroke-width: 0.4000000059604645;" x1="289.2" x2="295.6" y1="170.9541" y2="170.9541"/><!--link ValueEventListener to GraphEventListener--><path d="M544.8,48.6745 C544.8,69.5033 544.8,104.3661 544.8,126.4181 " fill="none" id="ValueEventListener-GraphEventListener" style="stroke: #A80036; stroke-width: 0.4000000059604645;"/><polygon fill="none" points="542,48.5613,544.8,40.5609,547.6,48.5609,542,48.5613" style="stroke: #A80036; stroke-width: 0.4000000059604645;"/><!--link GraphEventListener to MonitoringInformation--><path d="M574.996,171.0185 C595.044,186.6241 620.268,206.2589 634.86,217.6181 " fill="none" id="GraphEventListener-MonitoringInformation" style="stroke: #A80036; stroke-width: 0.4000000059604645;"/><polygon fill="#FFFFFF" points="570.804,167.7541,571.7148,170.491,574.5915,170.7028,573.6807,167.966,570.804,167.7541" style="stroke: #A80036; stroke-width: 0.4000000059604645;"/><text fill="#000000" font-family="sans-serif" font-size="5.2" lengthAdjust="spacingAndGlyphs" textLength="49.2" x="608" y="195.9105">monitoringInformation</text><text fill="#888888" font-family="sans-serif" font-size="4" lengthAdjust="spacingAndGlyphs" textLength="0" x="684.4" y="285.4648"/><text fill="#888888" font-family="sans-serif" font-size="4" lengthAdjust="spacingAndGlyphs" textLength="0" x="684.4" y="290.4961"/><text fill="#888888" font-family="sans-serif" font-size="4" lengthAdjust="spacingAndGlyphs" textLength="156.8" x="527.6" y="295.5273">PlantUML diagram generated by SketchIt! (https://bitbucket.org/pmesmeur/sketch.it)</text><text fill="#888888" font-family="sans-serif" font-size="4" lengthAdjust="spacingAndGlyphs" textLength="157.6" x="526.8" y="300.5586">For more information about this tool, please contact philippe.mesmeur@gmail.com</text><!--
@startuml

title __FRONTEND2's Class Diagram__\n

  package sud_tanj.com.icare {
    package sud_tanj.com.icare.Frontend.Fragment {
      package sud_tanj.com.icare.Frontend.Fragment.SensorCatalogue {
        class FirebaseMonitoringAdapter {
            - sensorUi : SensorUi
            + FirebaseMonitoringAdapter()
            # onBindViewHolder()
            + onCreateViewHolder()
        }
      }
    }
  }
  

  package sud_tanj.com.icare {
    package sud_tanj.com.icare.Frontend.Fragment {
      package sud_tanj.com.icare.Frontend.Fragment.SensorCatalogue {
        class MonitoringHolder {
            ~ imageView : ImageView
            + MonitoringHolder()
            + getImageView()
        }
      }
    }
  }
  

  package sud_tanj.com.icare {
    package sud_tanj.com.icare.Frontend.Listener {
      class FirebaseProfilePictureListener {
          - drawerProfile : DrawerProfile
          - baseActivity : DrawerActivity
          + FirebaseProfilePictureListener()
          + onResourceReady()
      }
    }
  }
  

  package sud_tanj.com.icare {
    package sud_tanj.com.icare.Frontend.Fragment {
      class FragmentBuilder {
          {static} - builder : Builder
          {static} - lastFragment : Fragment
          {static} + init()
          {static} + launchLastFragment()
          {static} + changeFragment()
          {static} + getLastFragment()
      }
    }
  }
  

  package sud_tanj.com.icare {
    package sud_tanj.com.icare.Frontend.Fragment {
      package sud_tanj.com.icare.Frontend.Fragment.DataCatalogue {
        package sud_tanj.com.icare.Frontend.Fragment.DataCatalogue.DataDetail {
          class GraphEventListener {
              - lineChartView : LineChart
              + GraphEventListener()
              + onDataChange()
              + onCancelled()
          }
        }
      }
    }
  }
  

  FirebaseMonitoringAdapter +-down- MonitoringHolder
  GraphEventListener -up-|> ValueEventListener
  GraphEventListener o- - MonitoringInformation : monitoringInformation


right footer


PlantUML diagram generated by SketchIt! (https://bitbucket.org/pmesmeur/sketch.it)
For more information about this tool, please contact philippe.mesmeur@gmail.com
endfooter

@enduml

PlantUML version 1.2018.09(Fri Jul 27 23:58:18 ICT 2018)
(GPL source distribution)
Java Runtime: OpenJDK Runtime Environment
JVM: OpenJDK 64-Bit Server VM
Java Version: 1.8.0_152-release-1024-b02
Operating System: Windows 10
OS Version: 10.0
Default Encoding: Cp1252
Language: en
Country: ID
--></g></svg>