<?xml version="1.0" encoding="UTF-8" standalone="no"?><svg xmlns="http://www.w3.org/2000/svg" xmlns:xlink="http://www.w3.org/1999/xlink" contentScriptType="application/ecmascript" contentStyleType="text/css" height="339.6px" preserveAspectRatio="none" style="width:779px;height:339px;" version="1.1" viewBox="0 0 779 339" width="779.6px" zoomAndPan="magnify"><defs><filter height="300%" id="f5fg39e6szko6" width="300%" x="-1" y="-1"><feGaussianBlur result="blurOut" stdDeviation="0.800000011920929"/><feColorMatrix in="blurOut" result="blurOut2" type="matrix" values="0 0 0 0 0 0 0 0 0 0 0 0 0 0 0 0 0 0 .4 0"/><feOffset dx="1.600000023841858" dy="1.600000023841858" in="blurOut2" result="blurOut3"/><feBlend in="SourceGraphic" in2="blurOut3" mode="normal"/></filter></defs><g><text fill="#000000" font-family="sans-serif" font-size="7.2" lengthAdjust="spacingAndGlyphs" text-decoration="underline" textLength="98" x="338.4" y="7.4742">FRONTEND1's Class Diagram</text><line style="stroke: #000000; stroke-width: 1.0;" x1="338.4" x2="436.4" y1="8.2742" y2="8.2742"/><text fill="#000000" font-family="sans-serif" font-size="7.2" lengthAdjust="spacingAndGlyphs" textLength="0" x="388.4" y="16.5305"/><!--cluster sud_tanj.com.icare--><polygon fill="#FFFFFF" filter="url(#f5fg39e6szko6)" points="8.8,46.9125,64,46.9125,66.8,56.3563,761.2,56.3563,761.2,304.9125,8.8,304.9125,8.8,46.9125" style="stroke: #000000; stroke-width: 0.6000000089406967;"/><line style="stroke: #000000; stroke-width: 0.6000000089406967;" x1="8.8" x2="66.8" y1="56.3563" y2="56.3563"/><text fill="#000000" font-family="sans-serif" font-size="5.6" font-weight="bold" lengthAdjust="spacingAndGlyphs" textLength="52.8" x="10.4" y="53.5258">sud_tanj.com.icare</text><!--cluster sud_tanj.com.icare.Frontend.Fragment--><polygon fill="#FFFFFF" filter="url(#f5fg39e6szko6)" points="136.8,64.5125,248,64.5125,250.8,73.9563,751.6,73.9563,751.6,295.3125,136.8,295.3125,136.8,64.5125" style="stroke: #000000; stroke-width: 0.6000000089406967;"/><line style="stroke: #000000; stroke-width: 0.6000000089406967;" x1="136.8" x2="250.8" y1="73.9563" y2="73.9563"/><text fill="#000000" font-family="sans-serif" font-size="5.6" font-weight="bold" lengthAdjust="spacingAndGlyphs" textLength="108.8" x="138.4" y="71.1258">sud_tanj.com.icare.Frontend.Fragment</text><!--cluster sud_tanj.com.icare.Frontend.Fragment.SensorCatalogue--><polygon fill="#FFFFFF" filter="url(#f5fg39e6szko6)" points="362.8,82.1125,524,82.1125,526.8,91.5563,742,91.5563,742,216.1125,362.8,216.1125,362.8,82.1125" style="stroke: #000000; stroke-width: 0.6000000089406967;"/><line style="stroke: #000000; stroke-width: 0.6000000089406967;" x1="362.8" x2="526.8" y1="91.5563" y2="91.5563"/><text fill="#000000" font-family="sans-serif" font-size="5.6" font-weight="bold" lengthAdjust="spacingAndGlyphs" textLength="158.8" x="364.4" y="88.7258">sud_tanj.com.icare.Frontend.Fragment.SensorCatalogue</text><!--cluster sud_tanj.com.icare.Frontend.Fragment.SensorCatalogue.Cards--><polygon fill="#FFFFFF" filter="url(#f5fg39e6szko6)" points="549.2,126.3125,728.4,126.3125,731.2,135.7563,732.4,135.7563,732.4,171.9125,549.2,171.9125,549.2,126.3125" style="stroke: #000000; stroke-width: 0.6000000089406967;"/><line style="stroke: #000000; stroke-width: 0.6000000089406967;" x1="549.2" x2="731.2" y1="135.7563" y2="135.7563"/><text fill="#000000" font-family="sans-serif" font-size="5.6" font-weight="bold" lengthAdjust="spacingAndGlyphs" textLength="176.8" x="550.8" y="132.9258">sud_tanj.com.icare.Frontend.Fragment.SensorCatalogue.Cards</text><!--cluster sud_tanj.com.icare.Frontend.Fragment.DataCatalogue--><polygon fill="#FFFFFF" filter="url(#f5fg39e6szko6)" points="146.4,100.5125,300,100.5125,302.8,109.9563,353.2,109.9563,353.2,285.7125,146.4,285.7125,146.4,100.5125" style="stroke: #000000; stroke-width: 0.6000000089406967;"/><line style="stroke: #000000; stroke-width: 0.6000000089406967;" x1="146.4" x2="302.8" y1="109.9563" y2="109.9563"/><text fill="#000000" font-family="sans-serif" font-size="5.6" font-weight="bold" lengthAdjust="spacingAndGlyphs" textLength="151.2" x="148" y="107.1258">sud_tanj.com.icare.Frontend.Fragment.DataCatalogue</text><!--cluster sud_tanj.com.icare.Frontend.Fragment.DataCatalogue.DataDetail--><polygon fill="#FFFFFF" filter="url(#f5fg39e6szko6)" points="156,118.1125,339.6,118.1125,342.4,127.5563,343.6,127.5563,343.6,276.1125,156,276.1125,156,118.1125" style="stroke: #000000; stroke-width: 0.6000000089406967;"/><line style="stroke: #000000; stroke-width: 0.6000000089406967;" x1="156" x2="342.4" y1="127.5563" y2="127.5563"/><text fill="#000000" font-family="sans-serif" font-size="5.6" font-weight="bold" lengthAdjust="spacingAndGlyphs" textLength="181.2" x="157.6" y="124.7258">sud_tanj.com.icare.Frontend.Fragment.DataCatalogue.DataDetail</text><!--cluster sud_tanj.com.icare.Frontend.Activity--><polygon fill="#FFFFFF" filter="url(#f5fg39e6szko6)" points="18.4,120.7125,123.2,120.7125,126,130.1563,127.2,130.1563,127.2,177.5125,18.4,177.5125,18.4,120.7125" style="stroke: #000000; stroke-width: 0.6000000089406967;"/><line style="stroke: #000000; stroke-width: 0.6000000089406967;" x1="18.4" x2="126" y1="130.1563" y2="130.1563"/><text fill="#000000" font-family="sans-serif" font-size="5.6" font-weight="bold" lengthAdjust="spacingAndGlyphs" textLength="102.4" x="20" y="127.3258">sud_tanj.com.icare.Frontend.Activity</text><!--class AddModifyMonitor--><rect fill="#FEFECE" filter="url(#f5fg39e6szko6)" height="113.2844" id="AddModifyMonitor" style="stroke: #A80036; stroke-width: 0.6000000089406967;" width="78.8" x="463.8" y="96.5125"/><ellipse cx="482.1" cy="102.9125" fill="#A9DCDF" rx="4.4" ry="4.4" style="stroke: #A80036; stroke-width: 0.4000000059604645;"/><path d="M482.8,103.5125 L481.4813,103.5125 L481.3063,103.9125 L481.3063,103.9125 L481.4938,103.9125 L481.7,104.1625 L481.7,104.3125 L481.7,104.4625 L481.4938,104.7125 L481.3063,104.7125 L480.55,104.7125 L480.3063,104.7125 L480.1,104.4625 L480.1,104.3125 L480.1,104.1625 L480.3063,103.9125 L480.55,103.9125 L481.475,101.5125 L481.125,101.5125 L480.7063,101.5125 L480.5,101.2625 L480.5,101.1125 L480.5,100.9625 L480.7063,100.7125 L481.125,100.7125 L482.5938,100.7125 L483.6688,103.9125 L483.8938,103.9125 L483.8938,103.9125 L484.1,104.1625 L484.1,104.3125 L484.1,104.4625 L483.8938,104.7125 L483.6688,104.7125 L482.9125,104.7125 L482.7063,104.7125 L482.5,104.4625 L482.5,104.3125 L482.5,104.1625 L482.7063,103.9125 L482.9125,103.9125 L482.9125,103.9125 L482.8,103.5125 Z M482.5813,102.7125 L482.1,101.2813 L481.6875,102.7125 L482.5813,102.7125 Z "/><text fill="#000000" font-family="sans-serif" font-size="4.8" font-style="italic" lengthAdjust="spacingAndGlyphs" textLength="38.8" x="490.3" y="104.8766">AddModifyMonitor</text><line style="stroke: #A80036; stroke-width: 0.6000000089406967;" x1="464.2" x2="542.2" y1="109.3125" y2="109.3125"/><ellipse cx="468.2" cy="114.2797" fill="none" rx="1.2" ry="1.2" style="stroke: #038048; stroke-width: 0.4000000059604645;"/><text fill="#000000" font-family="sans-serif" font-size="4.4" lengthAdjust="spacingAndGlyphs" text-decoration="underline" textLength="41.2" x="471.8" y="115.4801">ELEMENT_IMAGE : int</text><line style="stroke: #000000; stroke-width: 1.0;" x1="471.8" x2="513" y1="116.2801" y2="116.2801"/><ellipse cx="468.2" cy="119.8141" fill="none" rx="1.2" ry="1.2" style="stroke: #038048; stroke-width: 0.4000000059604645;"/><text fill="#000000" font-family="sans-serif" font-size="4.4" lengthAdjust="spacingAndGlyphs" text-decoration="underline" textLength="40" x="471.8" y="121.0145">ELEMENT_NAME : int</text><line style="stroke: #000000; stroke-width: 1.0;" x1="471.8" x2="511.8" y1="121.8145" y2="121.8145"/><ellipse cx="468.2" cy="125.3484" fill="none" rx="1.2" ry="1.2" style="stroke: #038048; stroke-width: 0.4000000059604645;"/><text fill="#000000" font-family="sans-serif" font-size="4.4" lengthAdjust="spacingAndGlyphs" text-decoration="underline" textLength="54.4" x="471.8" y="126.5488">ELEMENT_DESCRIPTION : int</text><line style="stroke: #000000; stroke-width: 1.0;" x1="471.8" x2="526.2" y1="127.3488" y2="127.3488"/><ellipse cx="468.2" cy="130.8828" fill="none" rx="1.2" ry="1.2" style="stroke: #038048; stroke-width: 0.4000000059604645;"/><text fill="#000000" font-family="sans-serif" font-size="4.4" lengthAdjust="spacingAndGlyphs" text-decoration="underline" textLength="58.8" x="471.8" y="132.0832">ELEMENT_GRAPHLEGEND : int</text><line style="stroke: #000000; stroke-width: 1.0;" x1="471.8" x2="530.6" y1="132.8832" y2="132.8832"/><ellipse cx="468.2" cy="136.4172" fill="none" rx="1.2" ry="1.2" style="stroke: #038048; stroke-width: 0.4000000059604645;"/><text fill="#000000" font-family="sans-serif" font-size="4.4" lengthAdjust="spacingAndGlyphs" text-decoration="underline" textLength="44.8" x="471.8" y="137.6176">ELEMENT_STATUS : int</text><line style="stroke: #000000; stroke-width: 1.0;" x1="471.8" x2="516.6" y1="138.4176" y2="138.4176"/><ellipse cx="468.2" cy="141.9516" fill="none" rx="1.2" ry="1.2" style="stroke: #038048; stroke-width: 0.4000000059604645;"/><text fill="#000000" font-family="sans-serif" font-size="4.4" lengthAdjust="spacingAndGlyphs" text-decoration="underline" textLength="44.8" x="471.8" y="143.152">ELEMENT_HEADER : int</text><line style="stroke: #000000; stroke-width: 1.0;" x1="471.8" x2="516.6" y1="143.952" y2="143.952"/><ellipse cx="468.2" cy="147.4859" fill="none" rx="1.2" ry="1.2" style="stroke: #038048; stroke-width: 0.4000000059604645;"/><text fill="#000000" font-family="sans-serif" font-size="4.4" lengthAdjust="spacingAndGlyphs" text-decoration="underline" textLength="52.4" x="471.8" y="148.6863">ELEMENT_DEVELOPER : int</text><line style="stroke: #000000; stroke-width: 1.0;" x1="471.8" x2="524.2" y1="149.4863" y2="149.4863"/><ellipse cx="468.2" cy="153.0203" fill="none" rx="1.2" ry="1.2" style="stroke: #038048; stroke-width: 0.4000000059604645;"/><text fill="#000000" font-family="sans-serif" font-size="4.4" lengthAdjust="spacingAndGlyphs" text-decoration="underline" textLength="39.6" x="471.8" y="154.2207">STATUS_ON : String</text><line style="stroke: #000000; stroke-width: 1.0;" x1="471.8" x2="511.4" y1="155.0207" y2="155.0207"/><ellipse cx="468.2" cy="158.5547" fill="none" rx="1.2" ry="1.2" style="stroke: #038048; stroke-width: 0.4000000059604645;"/><text fill="#000000" font-family="sans-serif" font-size="4.4" lengthAdjust="spacingAndGlyphs" text-decoration="underline" textLength="41.6" x="471.8" y="159.7551">STATUS_OFF : String</text><line style="stroke: #000000; stroke-width: 1.0;" x1="471.8" x2="513.4" y1="160.5551" y2="160.5551"/><polygon fill="none" points="468.2,162.0891,469.8,163.6891,468.2,165.2891,466.6,163.6891" style="stroke: #B38D22; stroke-width: 0.4000000059604645;"/><text fill="#000000" font-family="sans-serif" font-size="4.4" lengthAdjust="spacingAndGlyphs" textLength="52.4" x="471.8" y="165.2895">mFormBuilder : FormBuilder</text><polygon fill="none" points="468.2,167.6234,469.8,169.2234,468.2,170.8234,466.6,169.2234" style="stroke: #B38D22; stroke-width: 0.4000000059604645;"/><text fill="#000000" font-family="sans-serif" font-size="4.4" lengthAdjust="spacingAndGlyphs" textLength="68.4" x="471.8" y="170.8238">formItems : List&lt;BaseFormElement&gt;</text><line style="stroke: #A80036; stroke-width: 0.6000000089406967;" x1="464.2" x2="542.2" y1="173.3906" y2="173.3906"/><ellipse cx="468.2" cy="178.3578" fill="#84BE84" rx="1.2" ry="1.2" style="stroke: #038048; stroke-width: 0.4000000059604645;"/><text fill="#000000" font-family="sans-serif" font-size="4.4" lengthAdjust="spacingAndGlyphs" textLength="16.8" x="471.8" y="179.5582">onStop()</text><ellipse cx="468.2" cy="183.8922" fill="#84BE84" rx="1.2" ry="1.2" style="stroke: #038048; stroke-width: 0.4000000059604645;"/><text fill="#000000" font-family="sans-serif" font-size="4.4" lengthAdjust="spacingAndGlyphs" textLength="12" x="471.8" y="185.0926">initUI()</text><polygon fill="#FFFF44" points="468.2,187.4266,469.8,189.0266,468.2,190.6266,466.6,189.0266" style="stroke: #B38D22; stroke-width: 0.4000000059604645;"/><text fill="#000000" font-family="sans-serif" font-size="4.4" font-style="italic" lengthAdjust="spacingAndGlyphs" textLength="36" x="471.8" y="190.627">getRecyclerView()</text><polygon fill="#FFFF44" points="468.2,192.9609,469.8,194.5609,468.2,196.1609,466.6,194.5609" style="stroke: #B38D22; stroke-width: 0.4000000059604645;"/><text fill="#000000" font-family="sans-serif" font-size="4.4" font-style="italic" lengthAdjust="spacingAndGlyphs" textLength="40.8" x="471.8" y="196.1613">formValueChanged()</text><polygon fill="#FFFF44" points="468.2,198.4953,469.8,200.0953,468.2,201.6953,466.6,200.0953" style="stroke: #B38D22; stroke-width: 0.4000000059604645;"/><text fill="#000000" font-family="sans-serif" font-size="4.4" font-style="italic" lengthAdjust="spacingAndGlyphs" textLength="34" x="471.8" y="201.6957">getFormHeader()</text><ellipse cx="468.2" cy="206.0297" fill="#84BE84" rx="1.2" ry="1.2" style="stroke: #038048; stroke-width: 0.4000000059604645;"/><text fill="#000000" font-family="sans-serif" font-size="4.4" lengthAdjust="spacingAndGlyphs" textLength="36.4" x="471.8" y="207.2301">onValueChanged()</text><!--class AddMonitor--><rect fill="#FEFECE" filter="url(#f5fg39e6szko6)" height="69.0094" id="AddMonitor" style="stroke: #A80036; stroke-width: 0.6000000089406967;" width="80.4" x="369.4" y="118.5125"/><ellipse cx="395.7" cy="124.9125" fill="#ADD1B2" rx="4.4" ry="4.4" style="stroke: #A80036; stroke-width: 0.4000000059604645;"/><path d="M396.5,123.5125 Q396.5813,123.3125 396.675,123.2125 Q396.7688,123.1125 396.875,123.1125 Q397.0625,123.1125 397.1813,123.225 Q397.3,123.3375 397.3,123.6 L397.3,124.225 Q397.3,124.4875 397.1875,124.6 Q397.075,124.7125 396.9,124.7125 Q396.7438,124.7125 396.6438,124.6438 Q396.5438,124.575 396.5,124.3938 Q396.4813,124.2688 396.4125,124.2 Q396.2875,124.0688 396.0625,123.9906 Q395.8375,123.9125 395.6125,123.9125 Q395.3313,123.9125 395.0969,124.025 Q394.8625,124.1375 394.6813,124.3875 Q394.5,124.6375 394.5,124.9813 L394.5,125.35 Q394.5,125.7625 394.8375,126.0375 Q395.175,126.3125 395.775,126.3125 Q396.1313,126.3125 396.3813,126.2313 Q396.525,126.1875 396.6875,126.0438 Q396.7938,125.9625 396.85,125.9375 Q396.9063,125.9125 396.975,125.9125 Q397.1063,125.9125 397.2031,126.0156 Q397.3,126.1188 397.3,126.2625 Q397.3,126.4 397.1625,126.5625 Q396.9625,126.8 396.6438,126.9313 Q396.225,127.1125 395.7125,127.1125 Q395.1125,127.1125 394.6313,126.875 Q394.2438,126.6875 393.9719,126.2813 Q393.7,125.875 393.7,125.3938 L393.7,124.9563 Q393.7,124.4563 393.9406,124.0188 Q394.1813,123.5813 394.6031,123.3469 Q395.025,123.1125 395.5,123.1125 Q395.7875,123.1125 396.0375,123.2125 Q396.2875,123.3125 396.5,123.5125 Z "/><text fill="#000000" font-family="sans-serif" font-size="4.8" lengthAdjust="spacingAndGlyphs" textLength="24.4" x="403.9" y="126.8766">AddMonitor</text><line style="stroke: #A80036; stroke-width: 0.6000000089406967;" x1="369.8" x2="449.4" y1="131.3125" y2="131.3125"/><polygon fill="none" points="373.8,134.6797,372.2,137.0797,375.4,137.0797" style="stroke: #1963A0; stroke-width: 0.4000000059604645;"/><text fill="#000000" font-family="sans-serif" font-size="4.4" lengthAdjust="spacingAndGlyphs" textLength="70" x="377.4" y="137.4801">superRecyclerView : RecyclerView</text><polygon fill="none" points="373.8,140.2141,372.2,142.6141,375.4,142.6141" style="stroke: #1963A0; stroke-width: 0.4000000059604645;"/><text fill="#000000" font-family="sans-serif" font-size="4.4" lengthAdjust="spacingAndGlyphs" textLength="65.2" x="377.4" y="143.0145">saveButton : FloatingActionButton</text><polygon fill="none" points="373.8,145.3484,375.4,146.9484,373.8,148.5484,372.2,146.9484" style="stroke: #B38D22; stroke-width: 0.4000000059604645;"/><text fill="#000000" font-family="sans-serif" font-size="4.4" lengthAdjust="spacingAndGlyphs" textLength="67.2" x="377.4" y="148.5488">deleteButton : FloatingActionButton</text><line style="stroke: #A80036; stroke-width: 0.6000000089406967;" x1="369.8" x2="449.4" y1="151.1156" y2="151.1156"/><polygon fill="#FFFF44" points="373.8,154.0828,375.4,155.6828,373.8,157.2828,372.2,155.6828" style="stroke: #B38D22; stroke-width: 0.4000000059604645;"/><text fill="#000000" font-family="sans-serif" font-size="4.4" lengthAdjust="spacingAndGlyphs" textLength="8.4" x="377.4" y="157.2832">init()</text><polygon fill="#FFFF44" points="373.8,159.6172,375.4,161.2172,373.8,162.8172,372.2,161.2172" style="stroke: #B38D22; stroke-width: 0.4000000059604645;"/><text fill="#000000" font-family="sans-serif" font-size="4.4" lengthAdjust="spacingAndGlyphs" textLength="36.8" x="377.4" y="162.8176">getRecyclerView()</text><polygon fill="#FFFF44" points="373.8,165.1516,375.4,166.7516,373.8,168.3516,372.2,166.7516" style="stroke: #B38D22; stroke-width: 0.4000000059604645;"/><text fill="#000000" font-family="sans-serif" font-size="4.4" lengthAdjust="spacingAndGlyphs" textLength="40.4" x="377.4" y="168.352">formValueChanged()</text><polygon fill="#FFFF44" points="373.8,170.6859,375.4,172.2859,373.8,173.8859,372.2,172.2859" style="stroke: #B38D22; stroke-width: 0.4000000059604645;"/><text fill="#000000" font-family="sans-serif" font-size="4.4" lengthAdjust="spacingAndGlyphs" textLength="32.8" x="377.4" y="173.8863">getFormHeader()</text><polygon fill="#FFFF44" points="373.8,176.2203,375.4,177.8203,373.8,179.4203,372.2,177.8203" style="stroke: #B38D22; stroke-width: 0.4000000059604645;"/><text fill="#000000" font-family="sans-serif" font-size="4.4" lengthAdjust="spacingAndGlyphs" textLength="38.8" x="377.4" y="179.4207">saveButtonClicked()</text><polygon fill="#FFFF44" points="373.8,181.7547,375.4,183.3547,373.8,184.9547,372.2,183.3547" style="stroke: #B38D22; stroke-width: 0.4000000059604645;"/><text fill="#000000" font-family="sans-serif" font-size="4.4" lengthAdjust="spacingAndGlyphs" textLength="40.8" x="377.4" y="184.9551">deleteButtonClicked()</text><!--class CardsUpdater--><rect fill="#FEFECE" filter="url(#f5fg39e6szko6)" height="24.7344" id="CardsUpdater" style="stroke: #A80036; stroke-width: 0.6000000089406967;" width="44" x="619.2" y="140.7125"/><ellipse cx="625.2" cy="147.1125" fill="#ADD1B2" rx="4.4" ry="4.4" style="stroke: #A80036; stroke-width: 0.4000000059604645;"/><path d="M626,145.7125 Q626.0813,145.5125 626.175,145.4125 Q626.2688,145.3125 626.375,145.3125 Q626.5625,145.3125 626.6813,145.425 Q626.8,145.5375 626.8,145.8 L626.8,146.425 Q626.8,146.6875 626.6875,146.8 Q626.575,146.9125 626.4,146.9125 Q626.2438,146.9125 626.1438,146.8438 Q626.0438,146.775 626,146.5938 Q625.9813,146.4688 625.9125,146.4 Q625.7875,146.2688 625.5625,146.1906 Q625.3375,146.1125 625.1125,146.1125 Q624.8313,146.1125 624.5969,146.225 Q624.3625,146.3375 624.1813,146.5875 Q624,146.8375 624,147.1813 L624,147.55 Q624,147.9625 624.3375,148.2375 Q624.675,148.5125 625.275,148.5125 Q625.6313,148.5125 625.8813,148.4313 Q626.025,148.3875 626.1875,148.2438 Q626.2938,148.1625 626.35,148.1375 Q626.4063,148.1125 626.475,148.1125 Q626.6063,148.1125 626.7031,148.2156 Q626.8,148.3188 626.8,148.4625 Q626.8,148.6 626.6625,148.7625 Q626.4625,149 626.1438,149.1313 Q625.725,149.3125 625.2125,149.3125 Q624.6125,149.3125 624.1313,149.075 Q623.7438,148.8875 623.4719,148.4813 Q623.2,148.075 623.2,147.5938 L623.2,147.1563 Q623.2,146.6563 623.4406,146.2188 Q623.6813,145.7813 624.1031,145.5469 Q624.525,145.3125 625,145.3125 Q625.2875,145.3125 625.5375,145.4125 Q625.7875,145.5125 626,145.7125 Z "/><text fill="#000000" font-family="sans-serif" font-size="4.8" lengthAdjust="spacingAndGlyphs" textLength="31.2" x="630.8" y="149.0766">CardsUpdater</text><line style="stroke: #A80036; stroke-width: 0.6000000089406967;" x1="619.6" x2="662.8" y1="153.5125" y2="153.5125"/><line style="stroke: #A80036; stroke-width: 0.6000000089406967;" x1="619.6" x2="662.8" y1="156.7125" y2="156.7125"/><ellipse cx="623.6" cy="161.6797" fill="#84BE84" rx="1.2" ry="1.2" style="stroke: #038048; stroke-width: 0.4000000059604645;"/><text fill="#000000" font-family="sans-serif" font-size="4.4" lengthAdjust="spacingAndGlyphs" textLength="26.8" x="627.2" y="162.8801">updateView()</text><!--class AnalysisAdapter--><rect fill="#FEFECE" filter="url(#f5fg39e6szko6)" height="35.8031" id="AnalysisAdapter" style="stroke: #A80036; stroke-width: 0.6000000089406967;" width="54" x="262.2" y="135.1125"/><ellipse cx="270.9" cy="141.5125" fill="#ADD1B2" rx="4.4" ry="4.4" style="stroke: #A80036; stroke-width: 0.4000000059604645;"/><path d="M271.7,140.1125 Q271.7813,139.9125 271.875,139.8125 Q271.9688,139.7125 272.075,139.7125 Q272.2625,139.7125 272.3813,139.825 Q272.5,139.9375 272.5,140.2 L272.5,140.825 Q272.5,141.0875 272.3875,141.2 Q272.275,141.3125 272.1,141.3125 Q271.9438,141.3125 271.8438,141.2438 Q271.7438,141.175 271.7,140.9938 Q271.6813,140.8688 271.6125,140.8 Q271.4875,140.6688 271.2625,140.5906 Q271.0375,140.5125 270.8125,140.5125 Q270.5313,140.5125 270.2969,140.625 Q270.0625,140.7375 269.8813,140.9875 Q269.7,141.2375 269.7,141.5813 L269.7,141.95 Q269.7,142.3625 270.0375,142.6375 Q270.375,142.9125 270.975,142.9125 Q271.3313,142.9125 271.5813,142.8313 Q271.725,142.7875 271.8875,142.6438 Q271.9938,142.5625 272.05,142.5375 Q272.1063,142.5125 272.175,142.5125 Q272.3063,142.5125 272.4031,142.6156 Q272.5,142.7188 272.5,142.8625 Q272.5,143 272.3625,143.1625 Q272.1625,143.4 271.8438,143.5313 Q271.425,143.7125 270.9125,143.7125 Q270.3125,143.7125 269.8313,143.475 Q269.4438,143.2875 269.1719,142.8813 Q268.9,142.475 268.9,141.9938 L268.9,141.5563 Q268.9,141.0563 269.1406,140.6188 Q269.3813,140.1813 269.8031,139.9469 Q270.225,139.7125 270.7,139.7125 Q270.9875,139.7125 271.2375,139.8125 Q271.4875,139.9125 271.7,140.1125 Z "/><text fill="#000000" font-family="sans-serif" font-size="4.8" lengthAdjust="spacingAndGlyphs" textLength="35.2" x="277.1" y="143.4766">AnalysisAdapter</text><line style="stroke: #A80036; stroke-width: 0.6000000089406967;" x1="262.6" x2="315.8" y1="147.9125" y2="147.9125"/><line style="stroke: #A80036; stroke-width: 0.6000000089406967;" x1="262.6" x2="315.8" y1="151.1125" y2="151.1125"/><ellipse cx="266.6" cy="156.0797" fill="#84BE84" rx="1.2" ry="1.2" style="stroke: #038048; stroke-width: 0.4000000059604645;"/><text fill="#000000" font-family="sans-serif" font-size="4.4" lengthAdjust="spacingAndGlyphs" textLength="35.6" x="270.2" y="157.2801">AnalysisAdapter()</text><polygon fill="#FFFF44" points="266.6,159.6141,268.2,161.2141,266.6,162.8141,265,161.2141" style="stroke: #B38D22; stroke-width: 0.4000000059604645;"/><text fill="#000000" font-family="sans-serif" font-size="4.4" lengthAdjust="spacingAndGlyphs" textLength="39.2" x="270.2" y="162.8145">onBindViewHolder()</text><ellipse cx="266.6" cy="167.1484" fill="#84BE84" rx="1.2" ry="1.2" style="stroke: #038048; stroke-width: 0.4000000059604645;"/><text fill="#000000" font-family="sans-serif" font-size="4.4" lengthAdjust="spacingAndGlyphs" textLength="43.6" x="270.2" y="168.3488">onCreateViewHolder()</text><!--class DataHolder--><rect fill="#FEFECE" filter="url(#f5fg39e6szko6)" height="35.8031" id="DataHolder" style="stroke: #A80036; stroke-width: 0.6000000089406967;" width="59.2" x="257.2" y="233.7125"/><ellipse cx="272.74" cy="240.1125" fill="#ADD1B2" rx="4.4" ry="4.4" style="stroke: #A80036; stroke-width: 0.4000000059604645;"/><path d="M273.54,238.7125 Q273.6213,238.5125 273.715,238.4125 Q273.8088,238.3125 273.915,238.3125 Q274.1025,238.3125 274.2213,238.425 Q274.34,238.5375 274.34,238.8 L274.34,239.425 Q274.34,239.6875 274.2275,239.8 Q274.115,239.9125 273.94,239.9125 Q273.7838,239.9125 273.6838,239.8438 Q273.5838,239.775 273.54,239.5938 Q273.5213,239.4688 273.4525,239.4 Q273.3275,239.2688 273.1025,239.1906 Q272.8775,239.1125 272.6525,239.1125 Q272.3713,239.1125 272.1369,239.225 Q271.9025,239.3375 271.7213,239.5875 Q271.54,239.8375 271.54,240.1813 L271.54,240.55 Q271.54,240.9625 271.8775,241.2375 Q272.215,241.5125 272.815,241.5125 Q273.1713,241.5125 273.4213,241.4313 Q273.565,241.3875 273.7275,241.2438 Q273.8338,241.1625 273.89,241.1375 Q273.9463,241.1125 274.015,241.1125 Q274.1463,241.1125 274.2431,241.2156 Q274.34,241.3188 274.34,241.4625 Q274.34,241.6 274.2025,241.7625 Q274.0025,242 273.6838,242.1313 Q273.265,242.3125 272.7525,242.3125 Q272.1525,242.3125 271.6713,242.075 Q271.2838,241.8875 271.0119,241.4813 Q270.74,241.075 270.74,240.5938 L270.74,240.1563 Q270.74,239.6563 270.9806,239.2188 Q271.2213,238.7813 271.6431,238.5469 Q272.065,238.3125 272.54,238.3125 Q272.8275,238.3125 273.0775,238.4125 Q273.3275,238.5125 273.54,238.7125 Z "/><text fill="#000000" font-family="sans-serif" font-size="4.8" lengthAdjust="spacingAndGlyphs" textLength="25.2" x="280.46" y="242.0766">DataHolder</text><line style="stroke: #A80036; stroke-width: 0.6000000089406967;" x1="257.6" x2="316" y1="246.5125" y2="246.5125"/><polygon fill="none" points="261.6,249.4797,263.2,251.0797,261.6,252.6797,260,251.0797" style="stroke: #B38D22; stroke-width: 0.4000000059604645;"/><text fill="#000000" font-family="sans-serif" font-size="4.4" lengthAdjust="spacingAndGlyphs" textLength="48.8" x="265.2" y="252.6801">analysisView : TextView</text><polygon fill="none" points="261.6,255.0141,263.2,256.6141,261.6,258.2141,260,256.6141" style="stroke: #B38D22; stroke-width: 0.4000000059604645;"/><text fill="#000000" font-family="sans-serif" font-size="4.4" lengthAdjust="spacingAndGlyphs" textLength="41.2" x="265.2" y="258.2145">dateView : TextView</text><line style="stroke: #A80036; stroke-width: 0.6000000089406967;" x1="257.6" x2="316" y1="260.7813" y2="260.7813"/><ellipse cx="261.6" cy="265.7484" fill="#84BE84" rx="1.2" ry="1.2" style="stroke: #038048; stroke-width: 0.4000000059604645;"/><text fill="#000000" font-family="sans-serif" font-size="4.4" lengthAdjust="spacingAndGlyphs" textLength="24.4" x="265.2" y="266.9488">DataHolder()</text><!--class CommentEventListener--><rect fill="#FEFECE" filter="url(#f5fg39e6szko6)" height="41.3375" id="CommentEventListener" style="stroke: #A80036; stroke-width: 0.6000000089406967;" width="64.8" x="183.2" y="132.5125"/><ellipse cx="189.2" cy="138.9125" fill="#ADD1B2" rx="4.4" ry="4.4" style="stroke: #A80036; stroke-width: 0.4000000059604645;"/><path d="M190,137.5125 Q190.0813,137.3125 190.175,137.2125 Q190.2688,137.1125 190.375,137.1125 Q190.5625,137.1125 190.6813,137.225 Q190.8,137.3375 190.8,137.6 L190.8,138.225 Q190.8,138.4875 190.6875,138.6 Q190.575,138.7125 190.4,138.7125 Q190.2438,138.7125 190.1438,138.6438 Q190.0438,138.575 190,138.3938 Q189.9813,138.2688 189.9125,138.2 Q189.7875,138.0688 189.5625,137.9906 Q189.3375,137.9125 189.1125,137.9125 Q188.8313,137.9125 188.5969,138.025 Q188.3625,138.1375 188.1813,138.3875 Q188,138.6375 188,138.9813 L188,139.35 Q188,139.7625 188.3375,140.0375 Q188.675,140.3125 189.275,140.3125 Q189.6313,140.3125 189.8813,140.2313 Q190.025,140.1875 190.1875,140.0438 Q190.2938,139.9625 190.35,139.9375 Q190.4063,139.9125 190.475,139.9125 Q190.6063,139.9125 190.7031,140.0156 Q190.8,140.1188 190.8,140.2625 Q190.8,140.4 190.6625,140.5625 Q190.4625,140.8 190.1438,140.9313 Q189.725,141.1125 189.2125,141.1125 Q188.6125,141.1125 188.1313,140.875 Q187.7438,140.6875 187.4719,140.2813 Q187.2,139.875 187.2,139.3938 L187.2,138.9563 Q187.2,138.4563 187.4406,138.0188 Q187.6813,137.5813 188.1031,137.3469 Q188.525,137.1125 189,137.1125 Q189.2875,137.1125 189.5375,137.2125 Q189.7875,137.3125 190,137.5125 Z "/><text fill="#000000" font-family="sans-serif" font-size="4.8" lengthAdjust="spacingAndGlyphs" textLength="52" x="194.8" y="140.8766">CommentEventListener</text><line style="stroke: #A80036; stroke-width: 0.6000000089406967;" x1="183.6" x2="247.6" y1="145.3125" y2="145.3125"/><rect fill="none" height="2.4" style="stroke: #C82930; stroke-width: 0.4000000059604645;" width="2.4" x="186.4" y="149.0797"/><text fill="#000000" font-family="sans-serif" font-size="4.4" lengthAdjust="spacingAndGlyphs" textLength="41.6" x="191.2" y="151.4801">chatView : ChatView</text><line style="stroke: #A80036; stroke-width: 0.6000000089406967;" x1="183.6" x2="247.6" y1="154.0469" y2="154.0469"/><ellipse cx="187.6" cy="159.0141" fill="#84BE84" rx="1.2" ry="1.2" style="stroke: #038048; stroke-width: 0.4000000059604645;"/><text fill="#000000" font-family="sans-serif" font-size="4.4" lengthAdjust="spacingAndGlyphs" textLength="47.2" x="191.2" y="160.2145">CommentEventListener()</text><ellipse cx="187.6" cy="164.5484" fill="#84BE84" rx="1.2" ry="1.2" style="stroke: #038048; stroke-width: 0.4000000059604645;"/><text fill="#000000" font-family="sans-serif" font-size="4.4" lengthAdjust="spacingAndGlyphs" textLength="31.6" x="191.2" y="165.7488">onDataChange()</text><ellipse cx="187.6" cy="170.0828" fill="#84BE84" rx="1.2" ry="1.2" style="stroke: #038048; stroke-width: 0.4000000059604645;"/><text fill="#000000" font-family="sans-serif" font-size="4.4" lengthAdjust="spacingAndGlyphs" textLength="26.8" x="191.2" y="171.2832">onCancelled()</text><!--class BaseActivity--><rect fill="#FEFECE" filter="url(#f5fg39e6szko6)" height="35.8031" id="BaseActivity" style="stroke: #A80036; stroke-width: 0.6000000089406967;" width="54.8" x="45.4" y="135.1125"/><ellipse cx="58.78" cy="141.5125" fill="#ADD1B2" rx="4.4" ry="4.4" style="stroke: #A80036; stroke-width: 0.4000000059604645;"/><path d="M59.58,140.1125 Q59.6613,139.9125 59.755,139.8125 Q59.8488,139.7125 59.955,139.7125 Q60.1425,139.7125 60.2613,139.825 Q60.38,139.9375 60.38,140.2 L60.38,140.825 Q60.38,141.0875 60.2675,141.2 Q60.155,141.3125 59.98,141.3125 Q59.8238,141.3125 59.7238,141.2438 Q59.6238,141.175 59.58,140.9938 Q59.5613,140.8688 59.4925,140.8 Q59.3675,140.6688 59.1425,140.5906 Q58.9175,140.5125 58.6925,140.5125 Q58.4113,140.5125 58.1769,140.625 Q57.9425,140.7375 57.7613,140.9875 Q57.58,141.2375 57.58,141.5813 L57.58,141.95 Q57.58,142.3625 57.9175,142.6375 Q58.255,142.9125 58.855,142.9125 Q59.2113,142.9125 59.4613,142.8313 Q59.605,142.7875 59.7675,142.6438 Q59.8738,142.5625 59.93,142.5375 Q59.9863,142.5125 60.055,142.5125 Q60.1863,142.5125 60.2831,142.6156 Q60.38,142.7188 60.38,142.8625 Q60.38,143 60.2425,143.1625 Q60.0425,143.4 59.7238,143.5313 Q59.305,143.7125 58.7925,143.7125 Q58.1925,143.7125 57.7113,143.475 Q57.3238,143.2875 57.0519,142.8813 Q56.78,142.475 56.78,141.9938 L56.78,141.5563 Q56.78,141.0563 57.0206,140.6188 Q57.2613,140.1813 57.6831,139.9469 Q58.105,139.7125 58.58,139.7125 Q58.8675,139.7125 59.1175,139.8125 Q59.3675,139.9125 59.58,140.1125 Z "/><text fill="#000000" font-family="sans-serif" font-size="4.8" lengthAdjust="spacingAndGlyphs" textLength="25.6" x="66.02" y="143.4766">BaseActivity</text><line style="stroke: #A80036; stroke-width: 0.6000000089406967;" x1="45.8" x2="99.8" y1="147.9125" y2="147.9125"/><line style="stroke: #A80036; stroke-width: 0.6000000089406967;" x1="45.8" x2="99.8" y1="151.1125" y2="151.1125"/><polygon fill="#FFFF44" points="49.8,154.0797,51.4,155.6797,49.8,157.2797,48.2,155.6797" style="stroke: #B38D22; stroke-width: 0.4000000059604645;"/><text fill="#000000" font-family="sans-serif" font-size="4.4" lengthAdjust="spacingAndGlyphs" textLength="20.8" x="53.4" y="157.2801">onCreate()</text><polygon fill="#FFFF44" points="49.8,159.6141,51.4,161.2141,49.8,162.8141,48.2,161.2141" style="stroke: #B38D22; stroke-width: 0.4000000059604645;"/><text fill="#000000" font-family="sans-serif" font-size="4.4" lengthAdjust="spacingAndGlyphs" textLength="34.4" x="53.4" y="162.8145">onActivityResult()</text><polygon fill="#FFFF44" points="49.8,165.1484,51.4,166.7484,49.8,168.3484,48.2,166.7484" style="stroke: #B38D22; stroke-width: 0.4000000059604645;"/><text fill="#000000" font-family="sans-serif" font-size="4.4" lengthAdjust="spacingAndGlyphs" textLength="44.4" x="53.4" y="168.3488">onSaveInstanceState()</text><!--class OnFormElementValueChangedListener--><rect fill="#FEFECE" filter="url(#f5fg39e6szko6)" height="19.2" id="OnFormElementValueChangedListener" style="stroke: #A80036; stroke-width: 0.6000000089406967;" width="100" x="492" y="21.3125"/><ellipse cx="498" cy="27.7125" fill="#ADD1B2" rx="4.4" ry="4.4" style="stroke: #A80036; stroke-width: 0.4000000059604645;"/><path d="M498.8,26.3125 Q498.8813,26.1125 498.975,26.0125 Q499.0688,25.9125 499.175,25.9125 Q499.3625,25.9125 499.4813,26.025 Q499.6,26.1375 499.6,26.4 L499.6,27.025 Q499.6,27.2875 499.4875,27.4 Q499.375,27.5125 499.2,27.5125 Q499.0438,27.5125 498.9438,27.4438 Q498.8438,27.375 498.8,27.1938 Q498.7813,27.0688 498.7125,27 Q498.5875,26.8688 498.3625,26.7906 Q498.1375,26.7125 497.9125,26.7125 Q497.6313,26.7125 497.3969,26.825 Q497.1625,26.9375 496.9813,27.1875 Q496.8,27.4375 496.8,27.7813 L496.8,28.15 Q496.8,28.5625 497.1375,28.8375 Q497.475,29.1125 498.075,29.1125 Q498.4313,29.1125 498.6813,29.0313 Q498.825,28.9875 498.9875,28.8438 Q499.0938,28.7625 499.15,28.7375 Q499.2063,28.7125 499.275,28.7125 Q499.4063,28.7125 499.5031,28.8156 Q499.6,28.9188 499.6,29.0625 Q499.6,29.2 499.4625,29.3625 Q499.2625,29.6 498.9438,29.7313 Q498.525,29.9125 498.0125,29.9125 Q497.4125,29.9125 496.9313,29.675 Q496.5438,29.4875 496.2719,29.0813 Q496,28.675 496,28.1938 L496,27.7563 Q496,27.2563 496.2406,26.8188 Q496.4813,26.3813 496.9031,26.1469 Q497.325,25.9125 497.8,25.9125 Q498.0875,25.9125 498.3375,26.0125 Q498.5875,26.1125 498.8,26.3125 Z "/><text fill="#000000" font-family="sans-serif" font-size="4.8" lengthAdjust="spacingAndGlyphs" textLength="87.2" x="503.6" y="29.6766">OnFormElementValueChangedListener</text><line style="stroke: #A80036; stroke-width: 0.6000000089406967;" x1="492.4" x2="591.6" y1="34.1125" y2="34.1125"/><line style="stroke: #A80036; stroke-width: 0.6000000089406967;" x1="492.4" x2="591.6" y1="37.3125" y2="37.3125"/><!--class Activity--><rect fill="#FEFECE" filter="url(#f5fg39e6szko6)" height="19.2" id="Activity" style="stroke: #A80036; stroke-width: 0.6000000089406967;" width="26.8" x="451" y="21.3125"/><ellipse cx="457" cy="27.7125" fill="#ADD1B2" rx="4.4" ry="4.4" style="stroke: #A80036; stroke-width: 0.4000000059604645;"/><path d="M457.8,26.3125 Q457.8813,26.1125 457.975,26.0125 Q458.0688,25.9125 458.175,25.9125 Q458.3625,25.9125 458.4813,26.025 Q458.6,26.1375 458.6,26.4 L458.6,27.025 Q458.6,27.2875 458.4875,27.4 Q458.375,27.5125 458.2,27.5125 Q458.0438,27.5125 457.9438,27.4438 Q457.8438,27.375 457.8,27.1938 Q457.7813,27.0688 457.7125,27 Q457.5875,26.8688 457.3625,26.7906 Q457.1375,26.7125 456.9125,26.7125 Q456.6313,26.7125 456.3969,26.825 Q456.1625,26.9375 455.9813,27.1875 Q455.8,27.4375 455.8,27.7813 L455.8,28.15 Q455.8,28.5625 456.1375,28.8375 Q456.475,29.1125 457.075,29.1125 Q457.4313,29.1125 457.6813,29.0313 Q457.825,28.9875 457.9875,28.8438 Q458.0938,28.7625 458.15,28.7375 Q458.2063,28.7125 458.275,28.7125 Q458.4063,28.7125 458.5031,28.8156 Q458.6,28.9188 458.6,29.0625 Q458.6,29.2 458.4625,29.3625 Q458.2625,29.6 457.9438,29.7313 Q457.525,29.9125 457.0125,29.9125 Q456.4125,29.9125 455.9313,29.675 Q455.5438,29.4875 455.2719,29.0813 Q455,28.675 455,28.1938 L455,27.7563 Q455,27.2563 455.2406,26.8188 Q455.4813,26.3813 455.9031,26.1469 Q456.325,25.9125 456.8,25.9125 Q457.0875,25.9125 457.3375,26.0125 Q457.5875,26.1125 457.8,26.3125 Z "/><text fill="#000000" font-family="sans-serif" font-size="4.8" lengthAdjust="spacingAndGlyphs" textLength="14" x="462.6" y="29.6766">Activity</text><line style="stroke: #A80036; stroke-width: 0.6000000089406967;" x1="451.4" x2="477.4" y1="34.1125" y2="34.1125"/><line style="stroke: #A80036; stroke-width: 0.6000000089406967;" x1="451.4" x2="477.4" y1="37.3125" y2="37.3125"/><!--class ValueEventListener--><rect fill="#FEFECE" filter="url(#f5fg39e6szko6)" height="19.2" id="ValueEventListener" style="stroke: #A80036; stroke-width: 0.6000000089406967;" width="55.2" x="188" y="21.3125"/><ellipse cx="194" cy="27.7125" fill="#ADD1B2" rx="4.4" ry="4.4" style="stroke: #A80036; stroke-width: 0.4000000059604645;"/><path d="M194.8,26.3125 Q194.8813,26.1125 194.975,26.0125 Q195.0688,25.9125 195.175,25.9125 Q195.3625,25.9125 195.4813,26.025 Q195.6,26.1375 195.6,26.4 L195.6,27.025 Q195.6,27.2875 195.4875,27.4 Q195.375,27.5125 195.2,27.5125 Q195.0438,27.5125 194.9438,27.4438 Q194.8438,27.375 194.8,27.1938 Q194.7813,27.0688 194.7125,27 Q194.5875,26.8688 194.3625,26.7906 Q194.1375,26.7125 193.9125,26.7125 Q193.6313,26.7125 193.3969,26.825 Q193.1625,26.9375 192.9813,27.1875 Q192.8,27.4375 192.8,27.7813 L192.8,28.15 Q192.8,28.5625 193.1375,28.8375 Q193.475,29.1125 194.075,29.1125 Q194.4313,29.1125 194.6813,29.0313 Q194.825,28.9875 194.9875,28.8438 Q195.0938,28.7625 195.15,28.7375 Q195.2063,28.7125 195.275,28.7125 Q195.4063,28.7125 195.5031,28.8156 Q195.6,28.9188 195.6,29.0625 Q195.6,29.2 195.4625,29.3625 Q195.2625,29.6 194.9438,29.7313 Q194.525,29.9125 194.0125,29.9125 Q193.4125,29.9125 192.9313,29.675 Q192.5438,29.4875 192.2719,29.0813 Q192,28.675 192,28.1938 L192,27.7563 Q192,27.2563 192.2406,26.8188 Q192.4813,26.3813 192.9031,26.1469 Q193.325,25.9125 193.8,25.9125 Q194.0875,25.9125 194.3375,26.0125 Q194.5875,26.1125 194.8,26.3125 Z "/><text fill="#000000" font-family="sans-serif" font-size="4.8" lengthAdjust="spacingAndGlyphs" textLength="42.4" x="199.6" y="29.6766">ValueEventListener</text><line style="stroke: #A80036; stroke-width: 0.6000000089406967;" x1="188.4" x2="242.8" y1="34.1125" y2="34.1125"/><line style="stroke: #A80036; stroke-width: 0.6000000089406967;" x1="188.4" x2="242.8" y1="37.3125" y2="37.3125"/><!--link OnFormElementValueChangedListener to AddModifyMonitor--><path d="M536.58,48.2689 C532.548,60.8909 526.792,78.8957 521.196,96.4093 " fill="none" id="OnFormElementValueChangedListener-AddModifyMonitor" style="stroke: #A80036; stroke-width: 0.4000000059604645;"/><polygon fill="none" points="533.916,47.4049,539.02,40.6369,539.252,49.1097,533.916,47.4049" style="stroke: #A80036; stroke-width: 0.4000000059604645;"/><!--link Activity to AddModifyMonitor--><path d="M469.82,48.2689 C473.852,60.8909 479.608,78.8957 485.204,96.4093 " fill="none" id="Activity-AddModifyMonitor" style="stroke: #A80036; stroke-width: 0.4000000059604645;"/><polygon fill="none" points="467.148,49.1097,467.38,40.6369,472.484,47.4049,467.148,49.1097" style="stroke: #A80036; stroke-width: 0.4000000059604645;"/><!--link AnalysisAdapter to DataHolder--><path d="M288.6156,177.3313 C288.1896,194.6865 287.622,217.8209 287.2356,233.5685 " fill="none" id="AnalysisAdapter-DataHolder" style="stroke: #A80036; stroke-width: 0.4000000059604645;"/><ellipse cx="288.6869" cy="174.4223" fill="#FFFFFF" rx="3.2" ry="3.2" style="stroke: #A80036; stroke-width: 0.4000000059604645;"/><line style="stroke: #A80036; stroke-width: 0.4000000059604645;" x1="288.6086" x2="288.7652" y1="177.6214" y2="171.2233"/><line style="stroke: #A80036; stroke-width: 0.4000000059604645;" x1="285.4878" x2="291.8859" y1="174.344" y2="174.5007"/><!--link ValueEventListener to CommentEventListener--><path d="M215.6,48.6573 C215.6,70.7869 215.6,108.9965 215.6,132.4441 " fill="none" id="ValueEventListener-CommentEventListener" style="stroke: #A80036; stroke-width: 0.4000000059604645;"/><polygon fill="none" points="212.8,48.6369,215.6,40.6369,218.4,48.6369,212.8,48.6369" style="stroke: #A80036; stroke-width: 0.4000000059604645;"/><text fill="#888888" font-family="sans-serif" font-size="4" lengthAdjust="spacingAndGlyphs" textLength="0" x="774.8" y="319.4648"/><text fill="#888888" font-family="sans-serif" font-size="4" lengthAdjust="spacingAndGlyphs" textLength="0" x="774.8" y="324.4961"/><text fill="#888888" font-family="sans-serif" font-size="4" lengthAdjust="spacingAndGlyphs" textLength="156.8" x="618" y="329.5273">PlantUML diagram generated by SketchIt! (https://bitbucket.org/pmesmeur/sketch.it)</text><text fill="#888888" font-family="sans-serif" font-size="4" lengthAdjust="spacingAndGlyphs" textLength="157.6" x="617.2" y="334.5586">For more information about this tool, please contact philippe.mesmeur@gmail.com</text><!--
@startuml

title __FRONTEND1's Class Diagram__\n

  package sud_tanj.com.icare {
    package sud_tanj.com.icare.Frontend.Fragment {
      package sud_tanj.com.icare.Frontend.Fragment.SensorCatalogue {
        abstract class AddModifyMonitor {
            {static} + ELEMENT_IMAGE : int
            {static} + ELEMENT_NAME : int
            {static} + ELEMENT_DESCRIPTION : int
            {static} + ELEMENT_GRAPHLEGEND : int
            {static} + ELEMENT_STATUS : int
            {static} + ELEMENT_HEADER : int
            {static} + ELEMENT_DEVELOPER : int
            {static} + STATUS_ON : String
            {static} + STATUS_OFF : String
            # mFormBuilder : FormBuilder
            # formItems : List<BaseFormElement>
            + onStop()
            + initUI()
            {abstract} # getRecyclerView()
            {abstract} # formValueChanged()
            {abstract} # getFormHeader()
            + onValueChanged()
        }
      }
    }
  }
  

  package sud_tanj.com.icare {
    package sud_tanj.com.icare.Frontend.Fragment {
      package sud_tanj.com.icare.Frontend.Fragment.SensorCatalogue {
        class AddMonitor {
            ~ superRecyclerView : RecyclerView
            ~ saveButton : FloatingActionButton
            # deleteButton : FloatingActionButton
            # init()
            # getRecyclerView()
            # formValueChanged()
            # getFormHeader()
            # saveButtonClicked()
            # deleteButtonClicked()
        }
      }
    }
  }
  

  package sud_tanj.com.icare {
    package sud_tanj.com.icare.Frontend.Fragment {
      package sud_tanj.com.icare.Frontend.Fragment.DataCatalogue {
        package sud_tanj.com.icare.Frontend.Fragment.DataCatalogue.DataDetail {
          class AnalysisAdapter {
              + AnalysisAdapter()
              # onBindViewHolder()
              + onCreateViewHolder()
          }
        }
      }
    }
  }
  

  package sud_tanj.com.icare {
    package sud_tanj.com.icare.Frontend.Fragment {
      package sud_tanj.com.icare.Frontend.Fragment.DataCatalogue {
        package sud_tanj.com.icare.Frontend.Fragment.DataCatalogue.DataDetail {
          class DataHolder {
              # analysisView : TextView
              # dateView : TextView
              + DataHolder()
          }
        }
      }
    }
  }
  

  package sud_tanj.com.icare {
    package sud_tanj.com.icare.Frontend.Activity {
      class BaseActivity {
          # onCreate()
          # onActivityResult()
          # onSaveInstanceState()
      }
    }
  }
  

  package sud_tanj.com.icare {
    package sud_tanj.com.icare.Frontend.Fragment {
      package sud_tanj.com.icare.Frontend.Fragment.SensorCatalogue {
        package sud_tanj.com.icare.Frontend.Fragment.SensorCatalogue.Cards {
          class CardsUpdater {
              + updateView()
          }
        }
      }
    }
  }
  

  package sud_tanj.com.icare {
    package sud_tanj.com.icare.Frontend.Fragment {
      package sud_tanj.com.icare.Frontend.Fragment.DataCatalogue {
        package sud_tanj.com.icare.Frontend.Fragment.DataCatalogue.DataDetail {
          class CommentEventListener {
              - chatView : ChatView
              + CommentEventListener()
              + onDataChange()
              + onCancelled()
          }
        }
      }
    }
  }
  

  AddModifyMonitor -up-|> OnFormElementValueChangedListener
  AddModifyMonitor -up-|> Activity
  AnalysisAdapter +-down- DataHolder
  CommentEventListener -up-|> ValueEventListener


right footer


PlantUML diagram generated by SketchIt! (https://bitbucket.org/pmesmeur/sketch.it)
For more information about this tool, please contact philippe.mesmeur@gmail.com
endfooter

@enduml

PlantUML version 1.2018.09(Fri Jul 27 23:58:18 ICT 2018)
(GPL source distribution)
Java Runtime: OpenJDK Runtime Environment
JVM: OpenJDK 64-Bit Server VM
Java Version: 1.8.0_152-release-1024-b02
Operating System: Windows 10
OS Version: 10.0
Default Encoding: Cp1252
Language: en
Country: ID
--></g></svg>